<svg id="svg" version="1.1" xmlns="http://www.w3.org/2000/svg" xmlns:xlink="http://www.w3.org/1999/xlink" width="400" height="400" viewBox="0, 0, 400,400"><g id="svgg"><path id="path0" d="M155.200 34.213 C 152.230 34.488,148.900 34.835,147.800 34.983 C 144.527 35.426,138.515 36.626,135.200 37.498 C 132.447 38.223,130.126 38.784,128.695 39.071 C 128.087 39.193,127.492 39.451,127.371 39.646 C 127.251 39.841,126.724 40.000,126.200 40.000 C 125.676 40.000,125.136 40.180,125.000 40.400 C 124.864 40.620,124.324 40.800,123.800 40.800 C 123.276 40.800,122.736 40.980,122.600 41.200 C 122.464 41.420,122.001 41.600,121.571 41.600 C 121.141 41.600,120.477 41.759,120.095 41.953 C 119.381 42.317,118.703 42.606,115.609 43.869 C 110.295 46.038,98.842 52.055,94.791 54.806 C 93.500 55.683,92.346 56.400,92.227 56.400 C 92.107 56.400,91.692 56.658,91.305 56.974 C 90.917 57.290,88.980 58.757,87.000 60.235 C 68.167 74.288,52.604 94.270,43.869 115.614 C 42.578 118.769,42.314 119.387,41.953 120.095 C 41.759 120.477,41.600 121.141,41.600 121.571 C 41.600 122.001,41.420 122.464,41.200 122.600 C 40.980 122.736,40.800 123.276,40.800 123.800 C 40.800 124.324,40.620 124.864,40.400 125.000 C 40.180 125.136,40.000 125.676,40.000 126.200 C 40.000 126.724,39.841 127.251,39.646 127.371 C 39.451 127.492,39.196 128.087,39.079 128.695 C 38.962 129.303,38.659 130.520,38.407 131.400 C 37.758 133.664,36.641 138.535,35.976 142.000 C 33.697 153.866,33.618 156.605,33.609 223.834 C 33.600 285.032,33.606 285.486,34.425 287.982 C 36.326 293.773,40.715 297.935,46.282 299.229 C 47.117 299.423,73.630 299.703,105.200 299.852 C 162.260 300.121,174.366 299.951,182.600 298.766 C 191.100 297.543,191.017 297.557,196.300 296.375 C 198.435 295.897,200.906 295.259,202.400 294.800 C 202.950 294.631,204.210 294.274,205.200 294.007 C 206.190 293.740,207.313 293.360,207.695 293.161 C 208.077 292.962,208.741 292.800,209.171 292.800 C 209.601 292.800,210.064 292.620,210.200 292.400 C 210.336 292.180,210.799 292.000,211.229 292.000 C 211.659 292.000,212.323 291.841,212.705 291.647 C 213.087 291.452,213.850 291.116,214.400 290.900 C 214.950 290.684,215.850 290.308,216.400 290.065 C 216.950 289.823,219.110 288.886,221.200 287.984 C 240.628 279.599,258.884 265.042,272.849 246.800 C 275.614 243.187,280.400 236.201,280.400 235.777 C 280.400 235.638,280.741 235.045,281.157 234.460 C 282.175 233.030,287.698 222.257,288.570 220.000 C 288.953 219.010,289.539 217.570,289.874 216.800 C 290.931 214.366,291.135 213.839,291.655 212.200 C 291.935 211.320,292.307 210.429,292.482 210.220 C 292.657 210.011,292.800 209.514,292.800 209.115 C 292.800 208.716,292.962 208.077,293.161 207.695 C 293.360 207.313,293.740 206.190,294.007 205.200 C 294.274 204.210,294.631 202.950,294.800 202.400 C 295.461 200.249,296.278 196.908,297.197 192.600 C 297.385 191.720,297.726 189.740,297.955 188.200 C 298.184 186.660,298.603 183.960,298.886 182.200 C 299.222 180.106,299.400 174.853,299.400 167.000 C 299.400 155.611,299.131 151.539,297.959 145.200 C 297.735 143.990,297.369 142.010,297.146 140.800 C 296.642 138.067,296.219 136.297,294.710 130.600 C 294.191 128.640,292.083 122.098,291.618 121.000 C 291.431 120.560,290.869 119.120,290.370 117.800 C 287.945 111.392,282.754 101.102,279.534 96.322 C 278.691 95.069,278.000 93.854,278.000 93.622 C 278.000 93.390,277.850 93.200,277.668 93.200 C 277.485 93.200,277.080 92.708,276.768 92.106 C 276.455 91.504,275.982 90.739,275.716 90.406 C 275.450 90.073,274.370 88.625,273.316 87.189 C 267.952 79.880,259.159 70.543,252.400 64.980 C 246.967 60.509,238.069 54.000,237.390 54.000 C 237.243 54.000,236.646 53.660,236.062 53.244 C 234.121 51.863,230.658 49.982,225.200 47.346 C 219.923 44.797,218.736 44.253,216.900 43.546 C 216.405 43.356,215.550 43.020,215.000 42.800 C 214.450 42.580,213.595 42.238,213.100 42.040 C 212.605 41.843,211.570 41.464,210.800 41.200 C 210.030 40.936,209.040 40.578,208.600 40.405 C 208.160 40.233,206.990 39.870,206.000 39.599 C 205.010 39.329,203.750 38.969,203.200 38.800 C 200.466 37.960,196.651 37.024,193.400 36.396 C 192.080 36.141,190.640 35.845,190.200 35.740 C 182.945 33.995,165.694 33.242,155.200 34.213 M235.400 83.219 C 255.173 86.065,254.839 114.093,235.000 116.802 C 228.906 117.634,97.469 117.160,94.940 116.296 C 78.422 110.656,79.582 87.088,96.561 83.394 C 99.647 82.723,230.803 82.557,235.400 83.219 M235.502 149.980 C 253.625 152.027,255.183 178.323,237.460 183.042 C 234.388 183.860,165.057 183.851,162.360 183.033 C 145.100 177.794,146.154 152.606,163.743 149.997 C 166.531 149.583,231.854 149.568,235.502 149.980 " stroke="none" fill="#5bf5cd" fill-rule="evenodd"></path><path id="path1" d="M147.100 0.274 C 145.175 0.361,143.600 0.604,143.600 0.816 C 143.600 1.027,142.441 1.200,141.024 1.200 C 139.607 1.200,138.336 1.380,138.200 1.600 C 138.064 1.820,137.063 2.000,135.976 2.000 C 134.889 2.000,134.000 2.180,134.000 2.400 C 134.000 2.620,133.201 2.800,132.224 2.800 C 131.247 2.800,130.336 2.980,130.200 3.200 C 130.064 3.420,129.344 3.600,128.600 3.600 C 127.856 3.600,127.136 3.780,127.000 4.000 C 126.864 4.220,126.133 4.400,125.376 4.400 C 124.619 4.400,124.000 4.580,124.000 4.800 C 124.000 5.020,123.280 5.200,122.400 5.200 C 121.520 5.200,120.800 5.380,120.800 5.600 C 120.800 5.820,120.260 6.000,119.600 6.000 C 118.940 6.000,118.400 6.180,118.400 6.400 C 118.400 6.620,117.860 6.800,117.200 6.800 C 116.540 6.800,116.000 6.980,116.000 7.200 C 116.000 7.420,115.370 7.600,114.600 7.600 C 113.830 7.600,113.200 7.780,113.200 8.000 C 113.200 8.220,112.705 8.401,112.100 8.402 C 111.495 8.404,110.484 8.674,109.854 9.002 C 109.224 9.331,108.380 9.600,107.978 9.600 C 107.576 9.600,107.136 9.780,107.000 10.000 C 106.864 10.220,106.403 10.400,105.976 10.400 C 105.549 10.400,105.200 10.541,105.200 10.713 C 105.200 10.885,104.705 11.066,104.100 11.116 C 103.495 11.166,102.940 11.385,102.867 11.603 C 102.793 11.822,102.388 12.000,101.967 12.000 C 101.545 12.000,101.200 12.180,101.200 12.400 C 101.200 12.620,100.761 12.800,100.224 12.800 C 99.687 12.800,99.136 12.980,99.000 13.200 C 98.864 13.420,98.403 13.600,97.976 13.600 C 97.549 13.600,97.200 13.780,97.200 14.000 C 97.200 14.220,96.840 14.400,96.400 14.400 C 95.960 14.400,95.600 14.580,95.600 14.800 C 95.600 15.020,95.240 15.200,94.800 15.200 C 94.360 15.200,94.000 15.380,94.000 15.600 C 94.000 15.820,93.640 16.000,93.200 16.000 C 92.760 16.000,92.400 16.180,92.400 16.400 C 92.400 16.620,92.130 16.800,91.800 16.800 C 91.470 16.800,91.200 16.980,91.200 17.200 C 91.200 17.420,90.840 17.600,90.400 17.600 C 89.960 17.600,89.600 17.780,89.600 18.000 C 89.600 18.220,89.240 18.400,88.800 18.400 C 88.360 18.400,88.000 18.580,88.000 18.800 C 88.000 19.020,87.640 19.200,87.200 19.200 C 86.760 19.200,86.400 19.380,86.400 19.600 C 86.400 19.820,86.040 20.000,85.600 20.000 C 85.160 20.000,84.800 20.180,84.800 20.400 C 84.800 20.620,84.480 20.800,84.088 20.800 C 83.697 20.800,83.117 21.160,82.800 21.600 C 82.483 22.040,81.903 22.400,81.512 22.400 C 81.120 22.400,80.800 22.580,80.800 22.800 C 80.800 23.020,80.480 23.200,80.088 23.200 C 79.697 23.200,79.117 23.560,78.800 24.000 C 78.483 24.440,77.987 24.800,77.698 24.800 C 77.141 24.800,75.358 25.847,74.471 26.695 C 74.181 26.973,73.804 27.200,73.634 27.200 C 73.464 27.200,72.801 27.650,72.162 28.200 C 71.523 28.749,70.775 29.199,70.500 29.200 C 70.225 29.200,70.000 29.350,70.000 29.532 C 70.000 29.715,69.509 30.120,68.909 30.432 C 68.309 30.745,67.196 31.581,66.434 32.292 C 65.673 33.002,64.970 33.504,64.873 33.406 C 64.775 33.308,64.196 33.762,63.587 34.414 C 62.978 35.066,62.310 35.600,62.103 35.600 C 61.896 35.600,60.899 36.365,59.886 37.300 C 58.873 38.235,57.211 39.720,56.193 40.600 C 52.745 43.581,39.600 56.931,39.600 57.451 C 39.600 57.602,38.880 58.431,38.000 59.293 C 37.120 60.156,36.400 61.128,36.400 61.454 C 36.400 61.780,36.220 61.936,36.000 61.800 C 35.780 61.664,35.600 61.761,35.600 62.016 C 35.600 62.271,35.060 62.983,34.400 63.600 C 33.740 64.217,33.200 64.937,33.200 65.200 C 33.200 65.463,32.660 66.183,32.000 66.800 C 31.340 67.417,30.800 68.169,30.800 68.472 C 30.800 68.775,30.440 69.283,30.000 69.600 C 29.560 69.917,29.200 70.373,29.200 70.613 C 29.200 70.853,28.844 71.431,28.409 71.899 C 27.973 72.366,27.568 72.985,27.509 73.274 C 27.449 73.563,27.125 74.070,26.790 74.400 C 25.893 75.281,24.800 77.093,24.800 77.698 C 24.800 77.987,24.440 78.483,24.000 78.800 C 23.560 79.117,23.200 79.609,23.200 79.894 C 23.200 80.587,22.362 82.041,21.500 82.843 C 21.115 83.201,20.800 83.788,20.800 84.147 C 20.800 84.506,20.620 84.800,20.400 84.800 C 20.180 84.800,20.000 85.160,20.000 85.600 C 20.000 86.040,19.820 86.400,19.600 86.400 C 19.380 86.400,19.200 86.760,19.200 87.200 C 19.200 87.640,19.020 88.000,18.800 88.000 C 18.580 88.000,18.400 88.360,18.400 88.800 C 18.400 89.240,18.220 89.600,18.000 89.600 C 17.780 89.600,17.600 89.960,17.600 90.400 C 17.600 90.840,17.420 91.200,17.200 91.200 C 16.980 91.200,16.800 91.470,16.800 91.800 C 16.800 92.130,16.620 92.400,16.400 92.400 C 16.180 92.400,16.000 92.760,16.000 93.200 C 16.000 93.640,15.820 94.000,15.600 94.000 C 15.380 94.000,15.200 94.360,15.200 94.800 C 15.200 95.240,15.020 95.600,14.800 95.600 C 14.580 95.600,14.400 95.960,14.400 96.400 C 14.400 96.840,14.220 97.200,14.000 97.200 C 13.780 97.200,13.600 97.549,13.600 97.976 C 13.600 98.403,13.420 98.864,13.200 99.000 C 12.980 99.136,12.800 99.687,12.800 100.224 C 12.800 100.761,12.620 101.200,12.400 101.200 C 12.180 101.200,12.000 101.545,12.000 101.967 C 12.000 102.388,11.822 102.793,11.603 102.867 C 11.385 102.940,11.166 103.495,11.116 104.100 C 11.066 104.705,10.885 105.200,10.713 105.200 C 10.541 105.200,10.400 105.549,10.400 105.976 C 10.400 106.403,10.220 106.864,10.000 107.000 C 9.780 107.136,9.600 107.576,9.600 107.978 C 9.600 108.380,9.331 109.224,9.002 109.854 C 8.674 110.484,8.404 111.495,8.402 112.100 C 8.401 112.705,8.220 113.200,8.000 113.200 C 7.780 113.200,7.600 113.740,7.600 114.400 C 7.600 115.060,7.420 115.600,7.200 115.600 C 6.980 115.600,6.800 116.230,6.800 117.000 C 6.800 117.770,6.620 118.400,6.400 118.400 C 6.180 118.400,6.000 118.940,6.000 119.600 C 6.000 120.260,5.820 120.800,5.600 120.800 C 5.380 120.800,5.200 121.520,5.200 122.400 C 5.200 123.280,5.020 124.000,4.800 124.000 C 4.580 124.000,4.400 124.630,4.400 125.400 C 4.400 126.170,4.220 126.800,4.000 126.800 C 3.780 126.800,3.600 127.520,3.600 128.400 C 3.600 129.280,3.420 130.000,3.200 130.000 C 2.980 130.000,2.800 130.900,2.800 132.000 C 2.800 133.100,2.620 134.000,2.400 134.000 C 2.180 134.000,2.000 134.889,2.000 135.976 C 2.000 137.063,1.820 138.064,1.600 138.200 C 1.380 138.336,1.200 139.592,1.200 140.990 C 1.200 142.669,1.030 143.590,0.700 143.700 C -0.035 143.945,-0.035 296.055,0.700 296.300 C 0.975 296.392,1.200 296.992,1.200 297.633 C 1.200 298.275,1.380 298.800,1.600 298.800 C 1.820 298.800,2.000 299.340,2.000 300.000 C 2.000 300.660,2.180 301.200,2.400 301.200 C 2.620 301.200,2.800 301.740,2.800 302.400 C 2.800 303.060,2.980 303.600,3.200 303.600 C 3.420 303.600,3.600 303.960,3.600 304.400 C 3.600 304.840,3.780 305.200,4.000 305.200 C 4.220 305.200,4.400 305.560,4.400 306.000 C 4.400 306.440,4.580 306.800,4.800 306.800 C 5.020 306.800,5.200 307.070,5.200 307.400 C 5.200 307.730,5.380 308.000,5.600 308.000 C 5.820 308.000,6.000 308.320,6.000 308.712 C 6.000 309.103,6.360 309.683,6.800 310.000 C 7.240 310.317,7.600 310.897,7.600 311.288 C 7.600 311.680,7.758 312.000,7.951 312.000 C 8.145 312.000,8.528 312.544,8.804 313.209 C 9.406 314.664,17.371 322.851,19.027 323.718 C 19.672 324.056,20.597 324.707,21.083 325.166 C 21.569 325.625,22.244 326.000,22.583 326.000 C 22.922 326.000,23.200 326.180,23.200 326.400 C 23.200 326.620,23.436 326.800,23.725 326.800 C 24.013 326.800,24.607 327.115,25.045 327.500 C 26.269 328.577,27.506 329.200,28.418 329.200 C 28.874 329.200,29.136 329.380,29.000 329.600 C 28.860 329.827,29.196 330.000,29.776 330.000 C 30.339 330.000,30.800 330.180,30.800 330.400 C 30.800 330.620,31.149 330.800,31.576 330.800 C 32.003 330.800,32.464 330.980,32.600 331.200 C 32.736 331.420,33.366 331.600,34.000 331.600 C 34.634 331.600,35.264 331.780,35.400 332.000 C 35.536 332.220,36.166 332.400,36.800 332.400 C 37.434 332.400,38.064 332.580,38.200 332.800 C 38.336 333.020,39.412 333.200,40.590 333.200 C 41.769 333.200,42.793 333.378,42.867 333.595 C 42.953 333.851,53.165 333.996,71.717 334.006 C 88.856 334.015,100.344 334.167,100.210 334.384 C 100.086 334.585,100.397 335.165,100.901 335.674 C 101.405 336.183,102.257 337.230,102.793 338.000 C 103.330 338.770,104.271 339.877,104.885 340.460 C 105.498 341.044,106.000 341.635,106.000 341.774 C 106.000 341.913,106.585 342.642,107.300 343.394 C 108.015 344.146,110.040 346.330,111.800 348.246 C 115.628 352.415,115.990 352.777,119.168 355.600 C 120.530 356.810,122.439 358.565,123.411 359.500 C 124.384 360.435,125.324 361.200,125.501 361.200 C 125.678 361.200,126.083 361.560,126.400 362.000 C 126.717 362.440,127.237 362.800,127.555 362.800 C 127.873 362.800,128.022 362.911,127.886 363.048 C 127.525 363.408,128.632 364.400,129.395 364.400 C 129.754 364.400,129.936 364.580,129.800 364.800 C 129.664 365.020,129.745 365.200,129.980 365.200 C 130.215 365.200,130.972 365.740,131.663 366.400 C 132.354 367.060,133.074 367.600,133.263 367.600 C 133.452 367.600,134.172 368.140,134.863 368.800 C 135.554 369.460,136.322 370.000,136.571 370.000 C 136.820 370.000,137.283 370.360,137.600 370.800 C 137.917 371.240,138.497 371.600,138.888 371.600 C 139.280 371.600,139.600 371.750,139.600 371.932 C 139.600 372.115,140.095 372.520,140.700 372.832 C 141.305 373.144,141.890 373.491,142.000 373.603 C 142.516 374.131,145.629 376.000,145.991 376.000 C 146.216 376.000,146.400 376.180,146.400 376.400 C 146.400 376.620,146.720 376.800,147.112 376.800 C 147.503 376.800,148.083 377.160,148.400 377.600 C 148.717 378.040,149.297 378.400,149.688 378.400 C 150.080 378.400,150.400 378.580,150.400 378.800 C 150.400 379.020,150.760 379.200,151.200 379.200 C 151.640 379.200,152.000 379.380,152.000 379.600 C 152.000 379.820,152.345 380.000,152.767 380.000 C 153.188 380.000,153.593 380.135,153.667 380.300 C 153.834 380.676,155.964 381.975,156.900 382.271 C 157.285 382.393,157.600 382.652,157.600 382.847 C 157.600 383.041,157.960 383.200,158.400 383.200 C 158.840 383.200,159.200 383.380,159.200 383.600 C 159.200 383.820,159.465 384.000,159.788 384.000 C 160.111 384.000,161.017 384.360,161.800 384.800 C 162.583 385.240,163.489 385.600,163.812 385.600 C 164.135 385.600,164.400 385.780,164.400 386.000 C 164.400 386.220,164.760 386.400,165.200 386.400 C 165.640 386.400,166.000 386.580,166.000 386.800 C 166.000 387.020,166.349 387.200,166.776 387.200 C 167.203 387.200,167.664 387.380,167.800 387.600 C 167.936 387.820,168.487 388.000,169.024 388.000 C 169.561 388.000,170.000 388.180,170.000 388.400 C 170.000 388.620,170.349 388.800,170.776 388.800 C 171.203 388.800,171.664 388.980,171.800 389.200 C 171.936 389.420,172.487 389.600,173.024 389.600 C 173.561 389.600,174.000 389.740,174.000 389.911 C 174.000 390.255,178.238 391.600,179.320 391.600 C 179.694 391.600,180.000 391.780,180.000 392.000 C 180.000 392.220,180.540 392.400,181.200 392.400 C 181.860 392.400,182.400 392.580,182.400 392.800 C 182.400 393.020,182.929 393.200,183.576 393.200 C 184.223 393.200,184.864 393.380,185.000 393.600 C 185.136 393.820,185.867 394.000,186.624 394.000 C 187.381 394.000,188.000 394.180,188.000 394.400 C 188.000 394.620,188.619 394.800,189.376 394.800 C 190.133 394.800,190.864 394.980,191.000 395.200 C 191.136 395.420,191.766 395.600,192.400 395.600 C 193.034 395.600,193.664 395.780,193.800 396.000 C 193.936 396.220,194.757 396.400,195.624 396.400 C 196.491 396.400,197.200 396.580,197.200 396.800 C 197.200 397.020,198.100 397.200,199.200 397.200 C 200.300 397.200,201.200 397.380,201.200 397.600 C 201.200 397.820,202.100 398.000,203.200 398.000 C 204.300 398.000,205.200 398.180,205.200 398.400 C 205.200 398.624,206.307 398.800,207.720 398.800 C 209.203 398.800,210.446 399.006,210.740 399.300 C 211.136 399.696,226.903 399.800,286.887 399.800 C 347.048 399.800,362.567 399.698,362.700 399.300 C 362.792 399.025,363.394 398.800,364.039 398.800 C 364.683 398.800,365.568 398.620,366.005 398.400 C 366.442 398.180,367.158 397.820,367.595 397.600 C 368.032 397.380,368.752 397.200,369.195 397.200 C 369.638 397.200,370.000 397.020,370.000 396.800 C 370.000 396.580,370.360 396.400,370.800 396.400 C 371.240 396.400,371.600 396.220,371.600 396.000 C 371.600 395.780,371.971 395.600,372.424 395.600 C 372.877 395.600,373.136 395.420,373.000 395.200 C 372.864 394.980,372.998 394.800,373.297 394.800 C 374.051 394.800,375.993 393.865,375.997 393.500 C 375.999 393.335,376.320 393.200,376.712 393.200 C 377.103 393.200,377.683 392.840,378.000 392.400 C 378.317 391.960,378.814 391.600,379.105 391.600 C 379.396 391.600,379.900 391.375,380.225 391.100 C 382.621 389.075,383.369 388.461,384.711 387.416 C 385.547 386.764,386.764 385.547,387.416 384.711 C 388.067 383.875,389.096 382.607,389.701 381.895 C 390.307 381.183,390.982 380.383,391.201 380.117 C 391.421 379.851,391.600 379.396,391.600 379.105 C 391.600 378.814,391.960 378.317,392.400 378.000 C 392.840 377.683,393.200 377.103,393.200 376.712 C 393.200 376.320,393.335 375.999,393.500 375.997 C 393.865 375.993,394.800 374.051,394.800 373.297 C 394.800 372.998,394.980 372.864,395.200 373.000 C 395.420 373.136,395.600 372.877,395.600 372.424 C 395.600 371.971,395.780 371.600,396.000 371.600 C 396.220 371.600,396.400 371.240,396.400 370.800 C 396.400 370.360,396.580 370.000,396.800 370.000 C 397.020 370.000,397.200 369.651,397.200 369.224 C 397.200 368.797,397.380 368.336,397.600 368.200 C 397.820 368.064,398.000 367.524,398.000 367.000 C 398.000 366.476,398.180 365.936,398.400 365.800 C 398.620 365.664,398.800 364.948,398.800 364.210 C 398.800 363.471,399.025 362.792,399.300 362.700 C 399.698 362.567,399.800 346.951,399.800 286.400 C 399.800 225.849,399.698 210.233,399.300 210.100 C 398.975 209.992,398.800 209.104,398.800 207.567 C 398.800 206.256,398.622 205.200,398.400 205.200 C 398.178 205.200,398.000 204.133,398.000 202.800 C 398.000 201.467,397.822 200.400,397.600 200.400 C 397.380 200.400,397.200 199.691,397.200 198.824 C 397.200 197.957,397.020 197.136,396.800 197.000 C 396.580 196.864,396.400 196.054,396.400 195.200 C 396.400 194.346,396.220 193.536,396.000 193.400 C 395.780 193.264,395.600 192.533,395.600 191.776 C 395.600 191.019,395.420 190.400,395.200 190.400 C 394.980 190.400,394.800 189.781,394.800 189.024 C 394.800 188.267,394.620 187.536,394.400 187.400 C 394.180 187.264,394.000 186.623,394.000 185.976 C 394.000 185.329,393.820 184.800,393.600 184.800 C 393.380 184.800,393.200 184.260,393.200 183.600 C 393.200 182.940,393.020 182.400,392.800 182.400 C 392.580 182.400,392.400 181.860,392.400 181.200 C 392.400 180.540,392.220 180.000,392.000 180.000 C 391.780 180.000,391.601 179.595,391.602 179.100 C 391.604 178.219,390.405 174.396,390.003 174.000 C 389.891 173.890,389.738 173.350,389.662 172.800 C 389.586 172.250,389.361 171.740,389.162 171.667 C 388.963 171.593,388.800 171.188,388.800 170.767 C 388.800 170.345,388.659 170.000,388.487 170.000 C 388.315 170.000,388.134 169.505,388.084 168.900 C 388.034 168.295,387.815 167.740,387.597 167.667 C 387.378 167.593,387.200 167.188,387.200 166.767 C 387.200 166.345,387.056 166.000,386.880 166.000 C 386.705 166.000,386.332 165.325,386.053 164.500 C 385.521 162.928,383.958 159.543,383.605 159.200 C 383.130 158.737,382.400 157.166,382.400 156.605 C 382.400 156.272,382.220 156.000,382.000 156.000 C 381.780 156.000,381.600 155.640,381.600 155.200 C 381.600 154.760,381.420 154.400,381.200 154.400 C 380.980 154.400,380.800 154.122,380.800 153.783 C 380.800 153.444,380.440 152.780,380.000 152.308 C 379.560 151.836,379.200 151.213,379.200 150.925 C 379.200 150.636,379.020 150.400,378.800 150.400 C 378.580 150.400,378.400 150.040,378.400 149.600 C 378.400 149.160,378.220 148.800,378.000 148.800 C 377.780 148.800,377.600 148.480,377.600 148.088 C 377.600 147.697,377.240 147.117,376.800 146.800 C 376.360 146.483,376.000 145.903,376.000 145.512 C 376.000 145.120,375.820 144.800,375.600 144.800 C 375.380 144.800,375.200 144.556,375.200 144.258 C 375.200 143.961,374.795 143.265,374.300 142.712 C 373.805 142.160,373.344 141.470,373.275 141.179 C 373.206 140.889,372.846 140.369,372.475 140.025 C 372.104 139.681,371.756 139.177,371.702 138.905 C 371.648 138.633,371.224 137.974,370.761 137.441 C 370.297 136.908,369.948 136.352,369.985 136.205 C 370.022 136.059,369.681 135.617,369.226 135.223 C 368.772 134.829,368.400 134.329,368.400 134.112 C 368.400 133.896,367.860 133.154,367.200 132.463 C 366.540 131.772,366.000 131.015,366.000 130.780 C 366.000 130.545,365.820 130.464,365.600 130.600 C 365.380 130.736,365.200 130.549,365.200 130.184 C 365.200 129.819,364.660 129.017,364.000 128.400 C 363.340 127.783,362.800 127.161,362.800 127.017 C 362.800 126.873,361.745 125.720,360.455 124.454 C 359.165 123.187,357.883 121.729,357.607 121.212 C 356.356 118.875,350.006 112.584,345.281 109.000 C 344.991 108.780,343.959 107.835,342.987 106.900 C 342.016 105.965,341.112 105.200,340.979 105.200 C 340.846 105.200,340.046 104.480,339.200 103.600 C 338.354 102.720,337.495 102.000,337.291 102.000 C 337.086 102.000,336.354 101.460,335.663 100.800 C 334.972 100.140,334.252 99.600,334.063 99.600 C 333.874 99.600,333.154 99.060,332.463 98.400 C 331.772 97.740,331.002 97.200,330.751 97.200 C 330.499 97.200,330.003 96.884,329.647 96.497 C 329.291 96.111,328.505 95.540,327.900 95.230 C 327.295 94.919,326.800 94.515,326.800 94.332 C 326.800 94.150,326.623 94.000,326.408 94.000 C 326.192 94.000,325.031 93.370,323.827 92.600 C 322.623 91.830,321.450 91.200,321.219 91.200 C 320.989 91.200,320.800 91.020,320.800 90.800 C 320.800 90.580,320.480 90.400,320.088 90.400 C 319.697 90.400,319.117 90.040,318.800 89.600 C 318.483 89.160,317.903 88.800,317.512 88.800 C 317.120 88.800,316.800 88.620,316.800 88.400 C 316.800 88.180,316.440 88.000,316.000 88.000 C 315.560 88.000,315.200 87.820,315.200 87.600 C 315.200 87.380,314.840 87.200,314.400 87.200 C 313.867 87.200,313.600 86.933,313.600 86.400 C 313.600 85.960,313.420 85.600,313.200 85.600 C 312.980 85.600,312.800 85.240,312.800 84.800 C 312.800 84.360,312.620 84.000,312.400 84.000 C 312.180 84.000,312.000 83.680,312.000 83.288 C 312.000 82.897,311.640 82.317,311.200 82.000 C 310.760 81.683,310.400 81.118,310.400 80.745 C 310.400 80.372,310.233 80.007,310.030 79.933 C 309.826 79.860,309.601 79.530,309.530 79.200 C 309.458 78.870,309.120 78.330,308.778 78.000 C 308.436 77.670,307.921 76.820,307.634 76.111 C 307.347 75.402,306.682 74.322,306.157 73.711 C 305.631 73.100,305.201 72.415,305.200 72.188 C 305.200 71.962,304.840 71.517,304.400 71.200 C 303.960 70.883,303.600 70.343,303.600 70.000 C 303.600 69.657,303.240 69.117,302.800 68.800 C 302.360 68.483,302.000 68.020,302.000 67.771 C 302.000 67.522,301.460 66.754,300.800 66.063 C 300.140 65.372,299.600 64.647,299.600 64.452 C 299.600 64.256,298.880 63.355,298.000 62.448 C 297.120 61.541,296.400 60.699,296.400 60.577 C 296.400 60.455,295.320 59.296,294.000 58.000 C 292.680 56.704,291.600 55.354,291.600 54.999 C 291.600 54.643,291.420 54.464,291.200 54.600 C 290.980 54.736,290.800 54.581,290.800 54.255 C 290.800 53.283,279.045 41.791,277.484 41.238 C 277.233 41.149,276.178 40.204,275.139 39.138 C 274.101 38.072,273.136 37.200,272.995 37.200 C 272.853 37.200,272.046 36.480,271.200 35.600 C 270.354 34.720,269.451 34.000,269.192 34.000 C 268.933 34.000,268.217 33.460,267.600 32.800 C 266.983 32.140,266.280 31.600,266.036 31.600 C 265.792 31.600,265.028 31.060,264.337 30.400 C 263.646 29.740,262.921 29.200,262.724 29.200 C 262.527 29.200,261.980 28.840,261.508 28.400 C 261.036 27.960,260.413 27.600,260.125 27.600 C 259.836 27.600,259.600 27.420,259.600 27.200 C 259.600 26.980,259.408 26.800,259.173 26.800 C 258.939 26.800,258.157 26.350,257.436 25.800 C 256.714 25.250,255.916 24.800,255.662 24.800 C 255.408 24.800,255.200 24.620,255.200 24.400 C 255.200 24.180,254.906 24.000,254.547 24.000 C 254.188 24.000,253.603 23.685,253.247 23.300 C 252.891 22.915,252.330 22.541,252.000 22.470 C 251.670 22.398,251.340 22.173,251.267 21.970 C 251.193 21.766,250.788 21.600,250.367 21.600 C 249.945 21.600,249.600 21.420,249.600 21.200 C 249.600 20.980,249.364 20.800,249.075 20.800 C 248.787 20.800,248.164 20.440,247.692 20.000 C 247.220 19.560,246.556 19.200,246.217 19.200 C 245.878 19.200,245.600 19.020,245.600 18.800 C 245.600 18.580,245.240 18.400,244.800 18.400 C 244.360 18.400,244.000 18.220,244.000 18.000 C 244.000 17.780,243.728 17.600,243.395 17.600 C 242.834 17.600,241.263 16.870,240.800 16.395 C 240.690 16.282,239.700 15.767,238.600 15.251 C 237.500 14.735,236.287 14.152,235.905 13.956 C 235.523 13.760,234.938 13.600,234.605 13.600 C 234.272 13.600,234.000 13.420,234.000 13.200 C 234.000 12.980,233.655 12.800,233.233 12.800 C 232.812 12.800,232.407 12.622,232.333 12.403 C 232.260 12.185,231.705 11.966,231.100 11.916 C 230.495 11.866,230.000 11.685,230.000 11.513 C 230.000 11.341,229.655 11.200,229.233 11.200 C 228.812 11.200,228.407 11.037,228.333 10.838 C 228.260 10.639,227.750 10.414,227.200 10.338 C 226.650 10.262,226.110 10.109,226.000 9.997 C 225.604 9.595,221.781 8.396,220.900 8.398 C 220.405 8.399,220.000 8.220,220.000 8.000 C 220.000 7.780,219.460 7.600,218.800 7.600 C 218.140 7.600,217.600 7.420,217.600 7.200 C 217.600 6.980,217.060 6.800,216.400 6.800 C 215.740 6.800,215.200 6.620,215.200 6.400 C 215.200 6.180,214.480 6.000,213.600 6.000 C 212.720 6.000,212.000 5.820,212.000 5.600 C 212.000 5.380,211.460 5.200,210.800 5.200 C 210.140 5.200,209.600 5.020,209.600 4.800 C 209.600 4.580,208.880 4.400,208.000 4.400 C 207.120 4.400,206.400 4.220,206.400 4.000 C 206.400 3.780,205.691 3.600,204.824 3.600 C 203.957 3.600,203.136 3.420,203.000 3.200 C 202.864 2.980,201.964 2.800,201.000 2.800 C 200.036 2.800,199.136 2.620,199.000 2.400 C 198.864 2.180,197.863 2.000,196.776 2.000 C 195.689 2.000,194.800 1.820,194.800 1.600 C 194.800 1.379,193.760 1.200,192.480 1.200 C 191.185 1.200,189.944 0.984,189.671 0.711 C 189.187 0.227,155.807 -0.115,147.100 0.274 M180.200 33.632 C 186.281 34.292,189.808 34.882,197.000 36.442 C 198.710 36.812,200.932 37.391,203.200 38.055 C 203.970 38.281,205.097 38.562,205.705 38.679 C 206.313 38.796,206.908 39.051,207.029 39.246 C 207.149 39.441,207.676 39.600,208.200 39.600 C 208.724 39.600,209.264 39.780,209.400 40.000 C 209.536 40.220,209.999 40.400,210.429 40.400 C 210.859 40.400,211.568 40.580,212.005 40.800 C 212.442 41.020,213.158 41.380,213.595 41.600 C 214.032 41.820,214.574 42.000,214.799 42.000 C 215.024 42.000,216.062 42.381,217.104 42.847 C 218.147 43.312,219.630 43.960,220.400 44.286 C 227.619 47.342,244.031 56.784,245.600 58.784 C 245.710 58.924,246.430 59.477,247.200 60.014 C 252.720 63.858,263.568 74.082,268.619 80.200 C 269.708 81.520,270.691 82.690,270.802 82.800 C 271.554 83.543,276.000 89.675,276.000 89.969 C 276.000 90.169,276.149 90.393,276.330 90.467 C 276.657 90.599,280.800 96.599,280.800 96.941 C 280.800 97.039,281.541 98.338,282.446 99.828 C 284.666 103.482,290.800 116.239,290.800 117.201 C 290.800 117.426,290.959 117.923,291.153 118.305 C 291.348 118.687,291.729 119.540,292.000 120.200 C 292.271 120.860,292.652 121.713,292.847 122.095 C 293.041 122.477,293.200 123.064,293.200 123.400 C 293.200 123.736,293.362 124.323,293.561 124.705 C 293.760 125.087,294.140 126.210,294.407 127.200 C 294.673 128.190,295.037 129.360,295.215 129.800 C 295.394 130.240,295.625 131.050,295.730 131.600 C 295.835 132.150,296.181 133.590,296.500 134.800 C 297.505 138.608,298.595 144.232,299.175 148.600 C 300.776 160.643,300.775 174.555,299.175 184.800 C 298.543 188.843,297.979 192.051,297.593 193.800 C 297.398 194.680,297.028 196.390,296.770 197.600 C 296.512 198.810,296.164 200.250,295.997 200.800 C 295.830 201.350,295.474 202.610,295.207 203.600 C 294.940 204.590,294.560 205.713,294.361 206.095 C 294.162 206.477,294.000 207.141,294.000 207.571 C 294.000 208.001,293.820 208.464,293.600 208.600 C 293.380 208.736,293.200 209.276,293.200 209.800 C 293.200 210.324,293.020 210.864,292.800 211.000 C 292.580 211.136,292.400 211.599,292.400 212.029 C 292.400 212.459,292.241 213.123,292.047 213.505 C 291.852 213.887,291.511 214.650,291.287 215.200 C 290.818 216.357,290.044 218.172,288.815 221.000 C 287.486 224.059,283.192 232.467,282.349 233.662 C 281.937 234.246,281.600 234.835,281.600 234.972 C 281.600 235.233,274.769 245.532,273.811 246.717 C 273.507 247.093,271.952 249.020,270.355 251.000 C 264.444 258.331,258.331 264.444,251.000 270.355 C 249.020 271.952,247.093 273.507,246.717 273.811 C 245.532 274.769,235.233 281.600,234.972 281.600 C 234.835 281.600,234.246 281.935,233.662 282.343 C 231.506 283.853,221.119 288.885,215.200 291.287 C 214.650 291.511,213.887 291.852,213.505 292.047 C 213.123 292.241,212.459 292.400,212.029 292.400 C 211.599 292.400,211.136 292.580,211.000 292.800 C 210.864 293.020,210.324 293.200,209.800 293.200 C 209.276 293.200,208.736 293.380,208.600 293.600 C 208.464 293.820,207.924 294.000,207.400 294.000 C 206.876 294.000,206.349 294.159,206.229 294.354 C 206.108 294.549,205.513 294.804,204.905 294.921 C 204.297 295.038,203.080 295.341,202.200 295.594 C 199.165 296.465,196.235 297.139,191.900 297.963 C 179.045 300.406,179.230 300.400,110.420 300.400 C 42.713 300.400,45.885 300.502,41.769 298.203 C 38.027 296.114,35.541 293.123,33.954 288.800 L 33.000 286.200 33.000 222.200 C 33.000 157.349,33.033 155.636,34.448 146.600 C 35.661 138.859,38.246 128.247,40.003 123.800 C 40.177 123.360,40.536 122.370,40.800 121.600 C 41.064 120.830,41.443 119.795,41.640 119.300 C 41.838 118.805,42.180 117.950,42.400 117.400 C 42.620 116.850,42.961 115.995,43.158 115.500 C 46.178 107.909,54.987 91.881,56.477 91.267 C 56.655 91.193,56.800 90.912,56.800 90.642 C 56.800 90.372,57.120 89.802,57.511 89.375 C 57.902 88.949,58.664 87.970,59.205 87.200 C 59.746 86.430,60.405 85.530,60.670 85.200 C 60.934 84.870,62.012 83.520,63.064 82.200 C 69.094 74.636,80.419 63.842,87.200 59.198 C 87.970 58.670,88.690 58.125,88.800 57.986 C 89.711 56.833,100.297 50.444,106.245 47.456 C 111.589 44.773,117.526 42.199,121.600 40.800 C 122.370 40.536,123.360 40.177,123.800 40.003 C 124.747 39.629,128.422 38.476,130.400 37.932 C 139.967 35.301,149.981 33.681,160.600 33.044 C 164.188 32.829,176.098 33.186,180.200 33.632 M97.600 83.876 C 79.566 86.895,79.209 112.649,97.155 115.998 C 100.265 116.578,233.050 116.547,236.227 115.965 C 253.793 112.747,253.793 87.253,236.227 84.035 C 233.946 83.617,100.063 83.464,97.600 83.876 M334.653 148.300 C 335.173 148.905,335.599 149.535,335.600 149.700 C 335.600 149.864,336.320 150.741,337.200 151.648 C 338.080 152.555,338.800 153.505,338.800 153.760 C 338.800 154.015,339.160 154.483,339.600 154.800 C 340.040 155.117,340.400 155.525,340.400 155.706 C 340.400 155.887,340.854 156.522,341.408 157.117 C 341.962 157.713,342.636 158.695,342.906 159.300 C 343.175 159.905,343.531 160.400,343.698 160.400 C 343.864 160.400,344.000 160.636,344.000 160.925 C 344.000 161.213,344.360 161.836,344.800 162.308 C 345.240 162.780,345.600 163.378,345.600 163.636 C 345.600 163.895,345.915 164.397,346.300 164.753 C 346.685 165.109,347.059 165.670,347.130 166.000 C 347.202 166.330,347.427 166.660,347.630 166.733 C 347.834 166.807,348.000 167.212,348.000 167.633 C 348.000 168.055,348.146 168.400,348.325 168.400 C 348.504 168.400,348.898 169.030,349.200 169.800 C 349.502 170.570,349.896 171.200,350.075 171.200 C 350.254 171.200,350.400 171.470,350.400 171.800 C 350.400 172.130,350.580 172.400,350.800 172.400 C 351.020 172.400,351.200 172.760,351.200 173.200 C 351.200 173.640,351.380 174.000,351.600 174.000 C 351.820 174.000,352.000 174.270,352.000 174.600 C 352.000 174.930,352.180 175.200,352.400 175.200 C 352.620 175.200,352.800 175.549,352.800 175.976 C 352.800 176.403,352.980 176.864,353.200 177.000 C 353.420 177.136,353.600 177.687,353.600 178.224 C 353.600 178.761,353.780 179.200,354.000 179.200 C 354.220 179.200,354.400 179.560,354.400 180.000 C 354.400 180.440,354.580 180.800,354.800 180.800 C 355.020 180.800,355.200 181.160,355.200 181.600 C 355.200 182.040,355.380 182.400,355.600 182.400 C 355.820 182.400,356.000 182.861,356.000 183.424 C 356.000 183.987,356.142 184.360,356.315 184.252 C 356.488 184.145,356.670 184.540,356.719 185.129 C 356.767 185.718,356.985 186.260,357.203 186.333 C 357.422 186.407,357.600 186.992,357.600 187.633 C 357.600 188.275,357.780 188.800,358.000 188.800 C 358.220 188.800,358.400 189.156,358.400 189.592 C 358.400 190.027,358.850 191.724,359.400 193.362 C 359.950 195.001,360.400 196.714,360.400 197.171 C 360.400 197.627,360.580 198.000,360.800 198.000 C 361.020 198.000,361.200 198.619,361.200 199.376 C 361.200 200.133,361.380 200.864,361.600 201.000 C 361.820 201.136,362.000 201.856,362.000 202.600 C 362.000 203.344,362.180 204.064,362.400 204.200 C 362.620 204.336,362.800 205.146,362.800 206.000 C 362.800 206.854,362.980 207.664,363.200 207.800 C 363.420 207.936,363.600 208.937,363.600 210.024 C 363.600 211.111,363.780 212.000,364.000 212.000 C 364.225 212.000,364.400 213.125,364.400 214.576 C 364.400 215.993,364.580 217.264,364.800 217.400 C 365.024 217.538,365.200 219.412,365.200 221.647 C 365.200 224.179,365.345 225.558,365.595 225.403 C 365.855 225.243,365.993 246.914,365.998 288.554 C 366.002 330.646,365.870 352.033,365.602 352.199 C 365.381 352.335,365.200 353.067,365.200 353.824 C 365.200 354.581,365.020 355.200,364.800 355.200 C 364.580 355.200,364.400 355.560,364.400 356.000 C 364.400 356.440,364.220 356.800,364.000 356.800 C 363.780 356.800,363.600 357.068,363.600 357.395 C 363.600 358.678,358.678 363.600,357.395 363.600 C 357.068 363.600,356.800 363.780,356.800 364.000 C 356.800 364.220,356.440 364.400,356.000 364.400 C 355.560 364.400,355.200 364.580,355.200 364.800 C 355.200 365.020,354.581 365.200,353.824 365.200 C 353.067 365.200,352.336 365.380,352.200 365.600 C 352.037 365.864,330.537 366.000,289.000 366.000 C 247.463 366.000,225.963 365.864,225.800 365.600 C 225.662 365.377,223.804 365.200,221.600 365.200 C 219.396 365.200,217.538 365.023,217.400 364.800 C 217.264 364.580,215.993 364.400,214.576 364.400 C 213.125 364.400,212.000 364.225,212.000 364.000 C 212.000 363.780,211.111 363.600,210.024 363.600 C 208.937 363.600,207.936 363.420,207.800 363.200 C 207.664 362.980,206.854 362.800,206.000 362.800 C 205.146 362.800,204.336 362.620,204.200 362.400 C 204.064 362.180,203.344 362.000,202.600 362.000 C 201.856 362.000,201.136 361.820,201.000 361.600 C 200.864 361.380,200.043 361.200,199.176 361.200 C 198.309 361.200,197.600 361.040,197.600 360.845 C 197.600 360.650,197.105 360.391,196.500 360.270 C 193.728 359.712,192.916 359.490,191.740 358.964 C 191.046 358.654,190.112 358.400,189.663 358.400 C 189.214 358.400,188.736 358.220,188.600 358.000 C 188.464 357.780,187.913 357.600,187.376 357.600 C 186.839 357.600,186.400 357.420,186.400 357.200 C 186.400 356.980,185.961 356.800,185.424 356.800 C 184.887 356.800,184.336 356.620,184.200 356.400 C 184.064 356.180,183.603 356.000,183.176 356.000 C 182.749 356.000,182.400 355.820,182.400 355.600 C 182.400 355.380,182.040 355.200,181.600 355.200 C 181.160 355.200,180.800 355.020,180.800 354.800 C 180.800 354.580,180.451 354.400,180.024 354.400 C 179.597 354.400,179.136 354.220,179.000 354.000 C 178.864 353.780,178.313 353.600,177.776 353.600 C 177.239 353.600,176.800 353.420,176.800 353.200 C 176.800 352.980,176.440 352.800,176.000 352.800 C 175.560 352.800,175.200 352.620,175.200 352.400 C 175.200 352.180,174.930 352.000,174.600 352.000 C 174.270 352.000,174.000 351.820,174.000 351.600 C 174.000 351.380,173.640 351.200,173.200 351.200 C 172.760 351.200,172.400 351.020,172.400 350.800 C 172.400 350.580,172.122 350.400,171.783 350.400 C 171.444 350.400,170.780 350.040,170.308 349.600 C 169.836 349.160,169.213 348.800,168.925 348.800 C 168.636 348.800,168.400 348.620,168.400 348.400 C 168.400 348.180,168.040 348.000,167.600 348.000 C 167.160 348.000,166.800 347.820,166.800 347.600 C 166.800 347.380,166.480 347.200,166.088 347.200 C 165.697 347.200,165.117 346.840,164.800 346.400 C 164.483 345.960,163.918 345.600,163.545 345.600 C 163.172 345.600,162.807 345.434,162.733 345.230 C 162.660 345.027,162.338 344.802,162.018 344.730 C 161.698 344.659,161.012 344.192,160.492 343.692 C 159.973 343.193,159.380 342.889,159.174 343.016 C 158.968 343.143,158.800 343.095,158.800 342.910 C 158.800 342.724,158.228 342.234,157.528 341.821 C 156.829 341.408,155.722 340.559,155.069 339.935 C 154.416 339.311,153.710 338.800,153.501 338.800 C 153.292 338.800,152.608 338.251,151.982 337.580 C 151.355 336.909,150.733 336.382,150.599 336.408 C 150.249 336.476,148.008 334.656,148.004 334.300 C 148.002 334.135,155.459 334.000,164.576 334.000 C 175.196 334.000,181.242 333.856,181.400 333.600 C 181.536 333.380,183.257 333.200,185.224 333.200 C 187.341 333.200,188.800 333.037,188.800 332.800 C 188.800 332.572,189.992 332.400,191.576 332.400 C 193.103 332.400,194.464 332.220,194.600 332.000 C 194.736 331.780,195.737 331.600,196.824 331.600 C 197.911 331.600,198.800 331.420,198.800 331.200 C 198.800 330.980,199.700 330.800,200.800 330.800 C 201.900 330.800,202.800 330.620,202.800 330.400 C 202.800 330.180,203.610 330.000,204.600 330.000 C 205.590 330.000,206.400 329.820,206.400 329.600 C 206.400 329.380,207.120 329.200,208.000 329.200 C 208.880 329.200,209.600 329.020,209.600 328.800 C 209.600 328.580,210.219 328.400,210.976 328.400 C 211.733 328.400,212.464 328.220,212.600 328.000 C 212.736 327.780,213.377 327.600,214.024 327.600 C 214.671 327.600,215.200 327.420,215.200 327.200 C 215.200 326.980,215.740 326.800,216.400 326.800 C 217.060 326.800,217.600 326.620,217.600 326.400 C 217.600 326.180,218.230 326.000,219.000 326.000 C 219.770 326.000,220.400 325.840,220.400 325.645 C 220.400 325.450,221.206 325.170,222.191 325.022 C 223.176 324.875,224.086 324.584,224.214 324.377 C 224.342 324.170,224.876 324.000,225.400 324.000 C 225.924 324.000,226.464 323.820,226.600 323.600 C 226.736 323.380,227.197 323.200,227.624 323.200 C 228.051 323.200,228.400 323.059,228.400 322.887 C 228.400 322.715,228.895 322.534,229.500 322.484 C 230.105 322.434,230.660 322.215,230.733 321.997 C 230.807 321.778,231.201 321.600,231.610 321.600 C 232.018 321.600,232.464 321.420,232.600 321.200 C 232.736 320.980,233.287 320.800,233.824 320.800 C 234.361 320.800,234.800 320.620,234.800 320.400 C 234.800 320.180,235.160 320.000,235.600 320.000 C 236.040 320.000,236.400 319.820,236.400 319.600 C 236.400 319.380,236.760 319.200,237.200 319.200 C 237.640 319.200,238.000 319.020,238.000 318.800 C 238.000 318.580,238.360 318.400,238.800 318.400 C 239.240 318.400,239.600 318.220,239.600 318.000 C 239.600 317.780,239.845 317.600,240.144 317.600 C 240.911 317.600,245.600 315.136,245.600 314.733 C 245.600 314.550,245.960 314.400,246.400 314.400 C 246.840 314.400,247.200 314.220,247.200 314.000 C 247.200 313.780,247.560 313.600,248.000 313.600 C 248.440 313.600,248.800 313.420,248.800 313.200 C 248.800 312.980,249.160 312.800,249.600 312.800 C 250.040 312.800,250.400 312.620,250.400 312.400 C 250.400 312.180,250.681 312.000,251.024 312.000 C 251.393 312.000,251.531 311.812,251.362 311.538 C 251.193 311.264,251.251 311.185,251.506 311.342 C 251.742 311.488,252.207 311.336,252.539 311.004 C 252.871 310.672,253.426 310.400,253.771 310.400 C 254.117 310.400,254.400 310.220,254.400 310.000 C 254.400 309.780,254.636 309.600,254.925 309.600 C 255.213 309.600,255.812 309.262,256.255 308.849 C 256.699 308.436,257.453 307.974,257.931 307.822 C 258.409 307.670,258.800 307.378,258.800 307.173 C 258.800 306.968,259.036 306.800,259.325 306.800 C 259.613 306.800,260.236 306.440,260.708 306.000 C 261.180 305.560,261.804 305.200,262.095 305.200 C 262.386 305.200,262.883 304.840,263.200 304.400 C 263.517 303.960,264.017 303.600,264.312 303.600 C 264.615 303.600,264.723 303.399,264.562 303.138 C 264.391 302.862,264.451 302.785,264.712 302.946 C 264.952 303.094,265.602 302.762,266.156 302.208 C 266.710 301.653,267.370 301.200,267.621 301.200 C 267.873 301.200,268.583 300.660,269.200 300.000 C 269.817 299.340,270.483 298.800,270.682 298.800 C 271.024 298.800,272.783 297.289,277.203 293.200 C 278.272 292.210,279.925 290.770,280.874 290.000 C 283.096 288.199,288.199 283.096,290.000 280.874 C 290.770 279.925,292.210 278.272,293.200 277.203 C 297.289 272.783,298.800 271.024,298.800 270.682 C 298.800 270.483,299.340 269.817,300.000 269.200 C 300.660 268.583,301.200 267.873,301.200 267.621 C 301.200 267.370,301.653 266.710,302.208 266.156 C 302.762 265.602,303.094 264.952,302.946 264.712 C 302.785 264.451,302.862 264.391,303.138 264.562 C 303.399 264.723,303.600 264.615,303.600 264.312 C 303.600 264.017,303.960 263.517,304.400 263.200 C 304.840 262.883,305.200 262.386,305.200 262.095 C 305.200 261.804,305.560 261.180,306.000 260.708 C 306.440 260.236,306.800 259.613,306.800 259.325 C 306.800 259.036,306.968 258.800,307.173 258.800 C 307.378 258.800,307.670 258.409,307.822 257.931 C 307.974 257.453,308.436 256.699,308.849 256.255 C 309.262 255.812,309.600 255.213,309.600 254.925 C 309.600 254.636,309.780 254.400,310.000 254.400 C 310.220 254.400,310.400 254.122,310.400 253.783 C 310.400 253.444,310.760 252.780,311.200 252.308 C 311.640 251.836,312.000 251.213,312.000 250.925 C 312.000 250.636,312.180 250.400,312.400 250.400 C 312.620 250.400,312.800 250.040,312.800 249.600 C 312.800 249.160,312.980 248.800,313.200 248.800 C 313.420 248.800,313.600 248.440,313.600 248.000 C 313.600 247.560,313.780 247.200,314.000 247.200 C 314.220 247.200,314.400 246.840,314.400 246.400 C 314.400 245.960,314.549 245.600,314.732 245.600 C 315.109 245.600,317.600 240.803,317.600 240.076 C 317.600 239.814,317.780 239.600,318.000 239.600 C 318.220 239.600,318.400 239.240,318.400 238.800 C 318.400 238.360,318.580 238.000,318.800 238.000 C 319.020 238.000,319.200 237.640,319.200 237.200 C 319.200 236.760,319.380 236.400,319.600 236.400 C 319.820 236.400,320.000 236.128,320.000 235.795 C 320.000 235.207,320.167 234.782,321.138 232.905 C 321.392 232.413,321.600 231.753,321.600 231.439 C 321.600 231.124,321.778 230.807,321.997 230.733 C 322.215 230.660,322.434 230.105,322.484 229.500 C 322.534 228.895,322.715 228.400,322.887 228.400 C 323.059 228.400,323.200 228.051,323.200 227.624 C 323.200 227.197,323.380 226.736,323.600 226.600 C 323.820 226.464,324.000 225.924,324.000 225.400 C 324.000 224.876,324.170 224.342,324.377 224.214 C 324.584 224.086,324.875 223.176,325.022 222.191 C 325.170 221.206,325.450 220.400,325.645 220.400 C 325.840 220.400,326.000 219.770,326.000 219.000 C 326.000 218.230,326.180 217.600,326.400 217.600 C 326.620 217.600,326.800 217.071,326.800 216.424 C 326.800 215.777,326.980 215.136,327.200 215.000 C 327.420 214.864,327.600 214.324,327.600 213.800 C 327.600 213.276,327.780 212.736,328.000 212.600 C 328.220 212.464,328.400 211.733,328.400 210.976 C 328.400 210.219,328.580 209.600,328.800 209.600 C 329.020 209.600,329.200 208.880,329.200 208.000 C 329.200 207.120,329.380 206.400,329.600 206.400 C 329.820 206.400,330.000 205.590,330.000 204.600 C 330.000 203.610,330.180 202.800,330.400 202.800 C 330.620 202.800,330.800 201.900,330.800 200.800 C 330.800 199.700,330.980 198.800,331.200 198.800 C 331.420 198.800,331.600 197.911,331.600 196.824 C 331.600 195.737,331.780 194.736,332.000 194.600 C 332.220 194.464,332.400 193.204,332.400 191.800 C 332.400 190.396,332.580 189.136,332.800 189.000 C 333.020 188.864,333.200 187.154,333.200 185.200 C 333.200 183.246,333.380 181.536,333.600 181.400 C 333.854 181.243,334.000 176.321,334.000 167.953 C 334.000 160.488,333.848 154.847,333.649 154.970 C 333.456 155.089,333.267 153.389,333.230 151.193 C 333.155 146.847,333.245 146.663,334.653 148.300 M163.149 150.769 C 147.235 153.940,146.250 177.467,161.834 182.195 C 164.277 182.936,234.609 183.106,237.400 182.378 C 252.138 178.532,253.832 158.652,240.000 151.874 L 237.400 150.600 201.000 150.540 C 180.980 150.507,163.947 150.610,163.149 150.769 " stroke="none" fill="#24242c" fill-rule="evenodd"></path><path id="path2" d="M159.200 33.177 C 157.110 33.299,160.530 33.400,166.800 33.400 C 174.240 33.400,176.672 33.313,173.800 33.151 C 168.651 32.859,164.470 32.867,159.200 33.177 M149.800 34.000 C 147.868 34.265,147.854 34.276,149.400 34.314 C 150.280 34.336,151.720 34.205,152.600 34.023 C 154.642 33.601,152.820 33.586,149.800 34.000 M180.600 34.006 C 182.201 34.354,185.481 34.531,185.167 34.252 C 185.075 34.171,183.650 34.004,182.000 33.881 C 179.776 33.716,179.414 33.748,180.600 34.006 M187.200 34.826 C 191.606 35.783,195.331 36.403,195.524 36.210 C 195.639 36.094,195.568 35.997,195.367 35.993 C 195.165 35.989,193.830 35.740,192.400 35.440 C 190.970 35.139,188.810 34.790,187.600 34.664 C 185.403 34.435,185.402 34.435,187.200 34.826 M143.700 35.076 C 144.085 35.176,144.715 35.176,145.100 35.076 C 145.485 34.975,145.170 34.893,144.400 34.893 C 143.630 34.893,143.315 34.975,143.700 35.076 M138.200 36.010 C 137.666 36.247,137.998 36.286,139.200 36.127 C 140.190 35.996,141.075 35.824,141.167 35.744 C 141.514 35.443,138.964 35.672,138.200 36.010 M134.800 36.806 C 134.378 37.082,134.615 37.123,135.600 36.942 C 137.325 36.625,137.651 36.398,136.367 36.406 C 135.835 36.409,135.130 36.589,134.800 36.806 M198.784 37.215 C 200.425 37.627,201.842 37.892,201.931 37.802 C 202.021 37.712,201.578 37.525,200.947 37.386 C 200.316 37.248,199.278 36.969,198.640 36.767 C 198.002 36.565,197.102 36.414,196.640 36.432 C 196.178 36.450,197.143 36.802,198.784 37.215 M131.600 37.606 C 131.178 37.882,131.415 37.923,132.400 37.742 C 134.125 37.425,134.451 37.198,133.167 37.206 C 132.635 37.209,131.930 37.389,131.600 37.606 M128.800 38.418 C 128.362 38.715,128.524 38.752,129.400 38.556 C 130.871 38.227,131.190 37.998,130.167 38.006 C 129.745 38.009,129.130 38.195,128.800 38.418 M202.433 38.144 C 202.525 38.223,203.140 38.408,203.800 38.556 C 204.676 38.752,204.838 38.715,204.400 38.418 C 203.860 38.053,202.032 37.798,202.433 38.144 M123.800 40.000 C 123.508 40.473,123.899 40.473,125.000 40.000 C 125.771 39.669,125.769 39.655,124.924 39.628 C 124.442 39.613,123.936 39.780,123.800 40.000 M102.300 49.477 C 101.256 50.058,100.463 50.597,100.540 50.673 C 100.700 50.834,104.400 48.814,104.400 48.566 C 104.400 48.315,104.343 48.340,102.300 49.477 M232.000 50.151 C 232.000 50.269,232.855 50.858,233.900 51.459 C 234.945 52.060,236.790 53.206,238.000 54.006 C 240.771 55.838,241.200 56.089,241.200 55.874 C 241.200 55.698,236.247 52.450,233.500 50.823 C 232.675 50.334,232.000 50.032,232.000 50.151 M96.742 52.708 C 91.592 55.894,88.807 57.786,88.803 58.100 C 88.802 58.265,90.465 57.261,92.500 55.869 C 94.535 54.477,97.055 52.849,98.100 52.252 C 99.145 51.655,100.000 51.084,100.000 50.983 C 100.000 50.695,99.968 50.712,96.742 52.708 M242.800 56.949 C 242.800 57.035,243.430 57.586,244.200 58.173 C 244.970 58.760,245.598 59.097,245.595 58.920 C 245.592 58.744,244.962 58.193,244.195 57.696 C 243.428 57.199,242.800 56.863,242.800 56.949 M84.700 61.035 C 83.435 62.042,82.400 62.951,82.400 63.056 C 82.400 63.161,83.480 62.416,84.800 61.400 C 86.870 59.807,87.516 59.191,87.100 59.203 C 87.045 59.205,85.965 60.029,84.700 61.035 M249.200 61.688 C 249.200 61.766,250.055 62.533,251.100 63.392 C 252.145 64.251,252.640 64.540,252.200 64.034 C 251.422 63.139,249.200 61.402,249.200 61.688 M80.654 64.255 C 80.023 64.797,79.573 65.306,79.654 65.386 C 79.734 65.466,80.316 65.088,80.946 64.545 C 81.577 64.003,82.027 63.494,81.946 63.414 C 81.866 63.334,81.284 63.712,80.654 64.255 M253.200 64.925 C 253.200 64.994,253.785 65.579,254.500 66.225 L 255.800 67.400 254.625 66.100 C 253.530 64.888,253.200 64.616,253.200 64.925 M77.315 67.210 C 76.389 68.085,75.767 68.800,75.934 68.800 C 76.101 68.800,76.941 68.080,77.800 67.200 C 79.810 65.141,79.500 65.148,77.315 67.210 M261.016 72.368 C 263.664 75.136,266.420 78.094,267.140 78.942 C 267.860 79.790,268.537 80.396,268.645 80.289 C 268.752 80.181,265.996 77.223,262.520 73.715 C 258.526 69.683,257.972 69.188,261.016 72.368 M71.608 72.592 C 70.641 73.577,69.929 74.441,70.025 74.513 C 70.121 74.584,70.990 73.778,71.957 72.721 C 74.171 70.300,73.941 70.214,71.608 72.592 M67.022 77.575 L 65.444 79.400 67.203 77.714 C 68.170 76.786,68.880 75.965,68.780 75.888 C 68.681 75.812,67.890 76.571,67.022 77.575 M64.070 80.822 C 63.558 81.470,63.288 81.990,63.470 81.978 C 63.651 81.966,64.219 81.426,64.730 80.778 C 65.242 80.130,65.512 79.610,65.330 79.622 C 65.149 79.634,64.581 80.174,64.070 80.822 M95.600 83.995 C 95.191 84.255,95.510 84.299,96.600 84.132 C 98.577 83.829,98.914 83.598,97.367 83.606 C 96.725 83.609,95.930 83.784,95.600 83.995 M234.833 83.743 C 234.925 83.822,235.720 83.997,236.600 84.132 C 237.690 84.299,238.009 84.255,237.600 83.995 C 237.053 83.646,234.445 83.409,234.833 83.743 M240.750 85.599 C 241.932 86.251,243.192 87.013,243.550 87.292 C 244.135 87.749,244.142 87.726,243.625 87.069 C 243.077 86.372,239.572 84.392,238.913 84.407 C 238.741 84.411,239.567 84.948,240.750 85.599 M272.975 86.132 C 273.591 86.939,274.176 87.600,274.275 87.600 C 274.553 87.600,272.821 85.260,272.309 84.944 C 272.059 84.789,272.359 85.324,272.975 86.132 M88.181 88.500 L 86.600 90.200 88.300 88.619 C 89.235 87.749,90.000 86.984,90.000 86.919 C 90.000 86.616,89.652 86.919,88.181 88.500 M275.006 88.912 C 275.392 89.524,275.809 89.924,275.932 89.801 C 276.055 89.678,275.739 89.178,275.230 88.689 L 274.304 87.800 275.006 88.912 M57.269 89.639 C 56.528 90.824,56.857 90.913,57.719 89.761 C 58.114 89.232,58.292 88.800,58.115 88.800 C 57.938 88.800,57.557 89.178,57.269 89.639 M276.461 90.619 C 276.729 91.428,280.539 97.194,280.700 97.034 C 280.789 96.945,279.840 95.370,278.592 93.536 C 277.344 91.701,276.385 90.388,276.461 90.619 M54.352 94.129 C 51.747 98.195,50.701 100.000,50.951 100.000 C 51.069 100.000,51.658 99.145,52.259 98.100 C 52.860 97.055,54.053 95.151,54.912 93.869 C 55.770 92.587,56.409 91.475,56.332 91.398 C 56.254 91.321,55.364 92.550,54.352 94.129 M83.849 95.815 C 83.712 96.173,83.621 96.946,83.646 97.533 C 83.680 98.332,83.770 98.198,84.004 97.000 C 84.335 95.300,84.262 94.740,83.849 95.815 M249.400 100.000 C 249.400 102.226,249.517 103.632,249.660 103.124 C 249.803 102.616,249.920 101.210,249.920 100.000 C 249.920 98.790,249.803 97.384,249.660 96.876 C 249.517 96.368,249.400 97.774,249.400 100.000 M281.286 98.400 C 281.606 98.950,282.543 100.615,283.368 102.100 C 284.194 103.585,284.954 104.800,285.058 104.800 C 285.341 104.800,282.314 99.346,281.453 98.304 L 280.705 97.400 281.286 98.400 M49.420 102.360 C 48.852 103.482,48.464 104.400,48.559 104.400 C 48.851 104.400,50.823 100.690,50.633 100.499 C 50.534 100.401,49.989 101.238,49.420 102.360 M83.606 102.633 C 83.609 103.275,83.784 104.070,83.995 104.400 C 84.255 104.809,84.299 104.490,84.132 103.400 C 83.829 101.423,83.598 101.086,83.606 102.633 M88.200 111.600 C 89.059 112.480,89.852 113.200,89.962 113.200 C 90.072 113.200,89.459 112.480,88.600 111.600 C 87.741 110.720,86.948 110.000,86.838 110.000 C 86.728 110.000,87.341 110.720,88.200 111.600 M242.800 113.200 C 242.250 113.630,241.997 113.986,242.238 113.991 C 242.479 113.996,243.002 113.640,243.400 113.200 C 244.312 112.192,244.088 112.192,242.800 113.200 M240.000 114.800 C 239.230 115.222,238.744 115.574,238.920 115.583 C 239.344 115.605,241.600 114.432,241.600 114.190 C 241.600 113.928,241.577 113.937,240.000 114.800 M95.600 116.005 C 95.930 116.216,96.725 116.391,97.367 116.394 C 98.914 116.402,98.577 116.171,96.600 115.868 C 95.510 115.701,95.191 115.745,95.600 116.005 M236.000 116.000 C 234.616 116.291,234.614 116.295,235.800 116.341 C 236.460 116.367,237.270 116.213,237.600 116.000 C 238.266 115.570,238.045 115.570,236.000 116.000 M292.428 122.276 C 292.518 123.315,293.144 124.196,293.172 123.324 C 293.187 122.842,293.020 122.336,292.800 122.200 C 292.580 122.064,292.413 122.098,292.428 122.276 M39.867 123.867 C 39.720 124.013,39.611 124.508,39.625 124.967 C 39.649 125.733,39.682 125.723,40.034 124.842 C 40.426 123.863,40.344 123.389,39.867 123.867 M293.228 124.676 C 293.318 125.715,293.944 126.596,293.972 125.724 C 293.987 125.242,293.820 124.736,293.600 124.600 C 293.380 124.464,293.213 124.498,293.228 124.676 M294.244 127.800 C 294.573 129.271,294.802 129.590,294.794 128.567 C 294.791 128.145,294.605 127.530,294.382 127.200 C 294.085 126.762,294.048 126.924,294.244 127.800 M38.249 129.015 C 38.112 129.373,38.015 129.966,38.034 130.333 C 38.053 130.700,38.227 130.469,38.421 129.820 C 38.798 128.558,38.665 127.933,38.249 129.015 M295.040 130.666 C 295.408 132.199,295.600 132.344,295.600 131.090 C 295.600 130.517,295.413 129.932,295.184 129.790 C 294.911 129.621,294.862 129.923,295.040 130.666 M37.449 131.815 C 37.312 132.173,37.218 132.856,37.241 133.333 C 37.267 133.881,37.403 133.686,37.610 132.803 C 37.960 131.316,37.865 130.733,37.449 131.815 M295.819 133.401 C 296.593 136.673,297.150 138.532,297.174 137.920 C 297.206 137.085,296.103 132.770,295.774 132.440 C 295.642 132.309,295.663 132.741,295.819 133.401 M36.649 135.015 C 36.512 135.373,36.418 136.056,36.441 136.533 C 36.467 137.081,36.603 136.886,36.810 136.003 C 37.160 134.516,37.065 133.933,36.649 135.015 M35.789 139.059 C 35.645 139.907,35.364 141.230,35.166 142.000 C 34.967 142.770,34.828 143.940,34.857 144.600 C 34.903 145.671,34.927 145.692,35.077 144.800 C 35.170 144.250,35.512 142.471,35.837 140.848 C 36.162 139.224,36.344 137.810,36.240 137.707 C 36.136 137.603,35.934 138.212,35.789 139.059 M297.378 139.800 C 297.692 142.036,298.408 146.192,298.792 148.000 L 299.174 149.800 298.979 147.800 C 298.709 145.041,297.974 140.804,297.557 139.600 C 297.235 138.674,297.222 138.688,297.378 139.800 M33.835 151.035 C 33.683 152.716,33.641 154.174,33.742 154.276 C 33.843 154.377,34.055 153.088,34.212 151.412 C 34.369 149.736,34.411 148.277,34.305 148.171 C 34.199 148.066,33.988 149.354,33.835 151.035 M163.515 150.328 C 163.138 150.478,179.556 150.600,200.000 150.600 C 220.444 150.600,236.862 150.478,236.485 150.328 C 236.108 150.179,219.690 150.056,200.000 150.056 C 180.310 150.056,163.892 150.179,163.515 150.328 M299.320 152.000 C 299.320 153.210,299.395 153.705,299.487 153.100 C 299.578 152.495,299.578 151.505,299.487 150.900 C 299.395 150.295,299.320 150.790,299.320 152.000 M156.962 153.262 L 156.200 154.124 157.300 153.416 C 158.434 152.686,158.649 152.400,158.062 152.400 C 157.876 152.400,157.381 152.788,156.962 153.262 M299.709 156.000 C 299.709 156.990,299.787 157.395,299.882 156.900 C 299.978 156.405,299.978 155.595,299.882 155.100 C 299.787 154.605,299.709 155.010,299.709 156.000 M33.064 161.300 C 32.715 168.917,32.770 283.773,33.123 285.755 C 33.275 286.611,33.400 257.676,33.400 221.455 C 33.400 185.235,33.383 155.600,33.362 155.600 C 33.341 155.600,33.207 158.165,33.064 161.300 M152.998 157.202 C 152.598 157.644,152.366 158.099,152.482 158.215 C 152.597 158.330,152.990 157.969,153.355 157.412 C 154.152 156.196,153.993 156.102,152.998 157.202 M246.637 157.400 C 246.997 157.950,247.357 158.400,247.437 158.400 C 247.517 158.400,247.378 157.950,247.127 157.400 C 246.877 156.850,246.516 156.400,246.327 156.400 C 246.137 156.400,246.276 156.850,246.637 157.400 M300.167 166.800 C 300.167 171.090,300.226 172.845,300.298 170.700 C 300.370 168.555,300.370 165.045,300.298 162.900 C 300.226 160.755,300.167 162.510,300.167 166.800 M150.252 163.700 C 149.934 164.888,149.984 168.818,150.328 169.683 C 150.478 170.058,150.600 168.663,150.600 166.583 C 150.600 162.424,150.598 162.409,150.252 163.700 M249.400 166.561 C 249.400 168.656,249.522 170.062,249.672 169.685 C 250.014 168.824,250.006 164.905,249.660 163.676 C 249.517 163.168,249.400 164.467,249.400 166.561 M150.832 171.513 C 150.796 172.086,152.700 176.000,153.013 176.000 C 153.123 176.000,152.786 175.145,152.263 174.100 C 151.740 173.055,151.211 171.930,151.088 171.600 C 150.941 171.209,150.852 171.179,150.832 171.513 M247.478 174.605 C 247.112 175.372,246.895 176.000,246.996 176.000 C 247.270 176.000,248.484 173.551,248.301 173.368 C 248.214 173.281,247.844 173.838,247.478 174.605 M299.709 177.600 C 299.709 178.590,299.787 178.995,299.882 178.500 C 299.978 178.005,299.978 177.195,299.882 176.700 C 299.787 176.205,299.709 176.610,299.709 177.600 M154.600 178.000 C 155.459 178.880,156.237 179.600,156.328 179.600 C 156.665 179.600,153.786 176.466,153.419 176.434 C 153.209 176.415,153.741 177.120,154.600 178.000 M244.818 178.134 L 243.437 179.800 245.118 178.219 C 246.043 177.349,246.800 176.584,246.800 176.519 C 246.800 176.059,245.994 176.716,244.818 178.134 M242.000 180.400 C 241.450 180.830,241.197 181.186,241.438 181.191 C 241.679 181.196,242.202 180.840,242.600 180.400 C 243.512 179.392,243.288 179.392,242.000 180.400 M299.320 181.600 C 299.320 182.810,299.395 183.305,299.487 182.700 C 299.578 182.095,299.578 181.105,299.487 180.500 C 299.395 179.895,299.320 180.390,299.320 181.600 M237.200 182.400 C 236.376 182.664,236.341 182.726,237.000 182.754 C 237.440 182.773,238.070 182.613,238.400 182.400 C 239.101 181.947,238.614 181.947,237.200 182.400 M181.930 183.100 C 191.902 183.159,208.102 183.159,217.930 183.100 C 227.759 183.040,219.600 182.992,199.800 182.992 C 180.000 182.992,171.959 183.040,181.930 183.100 M298.501 187.400 C 298.505 188.280,298.587 188.593,298.683 188.095 C 298.779 187.598,298.775 186.878,298.675 186.495 C 298.575 186.113,298.496 186.520,298.501 187.400 M297.693 192.000 C 297.693 192.770,297.775 193.085,297.876 192.700 C 297.976 192.315,297.976 191.685,297.876 191.300 C 297.775 190.915,297.693 191.230,297.693 192.000 M296.054 199.067 C 296.025 199.544,295.896 200.264,295.770 200.667 C 295.552 201.361,295.564 201.362,295.996 200.688 C 296.247 200.297,296.375 199.577,296.281 199.088 C 296.109 198.201,296.109 198.201,296.054 199.067 M295.246 202.067 C 295.221 202.434,295.096 203.064,294.970 203.467 C 294.752 204.162,294.763 204.163,295.197 203.487 C 295.448 203.096,295.573 202.466,295.473 202.087 C 295.311 201.468,295.288 201.466,295.246 202.067 M294.446 204.667 C 294.421 204.924,294.284 205.464,294.141 205.867 C 293.940 206.436,293.994 206.497,294.379 206.142 C 294.652 205.891,294.789 205.351,294.684 204.942 C 294.579 204.534,294.472 204.410,294.446 204.667 M283.351 231.300 C 282.983 232.015,282.419 233.050,282.098 233.600 C 281.539 234.559,281.543 234.567,282.189 233.800 C 282.978 232.863,284.507 230.000,284.218 230.000 C 284.110 230.000,283.719 230.585,283.351 231.300 M280.564 236.129 C 280.109 236.828,279.415 237.895,279.022 238.500 C 278.629 239.105,278.393 239.600,278.497 239.600 C 278.766 239.600,281.686 235.153,281.524 234.991 C 281.451 234.917,281.018 235.429,280.564 236.129 M274.627 245.000 C 274.040 245.770,273.703 246.398,273.880 246.395 C 274.056 246.392,274.607 245.762,275.104 244.995 C 276.268 243.197,276.000 243.200,274.627 245.000 M272.175 248.268 C 271.559 249.076,271.259 249.611,271.509 249.456 C 272.021 249.140,273.753 246.800,273.475 246.800 C 273.376 246.800,272.791 247.461,272.175 248.268 M268.204 253.196 C 267.574 253.854,267.135 254.456,267.229 254.534 C 267.323 254.612,267.913 254.074,268.539 253.338 C 269.954 251.677,269.745 251.588,268.204 253.196 M266.342 255.135 C 266.127 255.720,260.989 261.059,257.715 264.100 C 256.116 265.585,254.910 266.800,255.034 266.800 C 255.926 266.800,267.137 255.403,266.687 254.953 C 266.575 254.842,266.420 254.923,266.342 255.135 M252.975 268.500 L 251.800 269.800 253.198 268.600 C 253.967 267.940,254.672 267.355,254.765 267.300 C 254.857 267.245,254.757 267.200,254.542 267.200 C 254.326 267.200,253.621 267.785,252.975 268.500 M244.800 274.835 L 243.400 276.048 244.895 275.124 C 245.717 274.616,246.392 274.065,246.395 273.900 C 246.402 273.464,246.338 273.502,244.800 274.835 M237.000 280.000 C 235.680 280.879,234.738 281.598,234.906 281.599 C 235.249 281.600,239.600 278.768,239.600 278.543 C 239.600 278.287,239.432 278.381,237.000 280.000 M232.296 282.758 C 229.860 284.187,229.319 284.744,231.400 283.680 C 232.945 282.891,234.810 281.618,234.400 281.633 C 234.290 281.637,233.343 282.143,232.296 282.758 M34.800 290.935 C 34.800 291.498,37.074 294.565,38.258 295.596 C 39.349 296.548,39.345 296.530,38.155 295.196 C 37.470 294.428,36.435 293.083,35.855 292.207 C 35.275 291.331,34.800 290.759,34.800 290.935 M202.400 295.200 C 201.576 295.464,201.541 295.526,202.200 295.554 C 202.640 295.573,203.270 295.413,203.600 295.200 C 204.301 294.747,203.814 294.747,202.400 295.200 M199.400 296.000 C 198.293 296.282,198.277 296.309,199.200 296.347 C 199.750 296.369,200.470 296.213,200.800 296.000 C 201.481 295.560,201.129 295.560,199.400 296.000 M39.600 296.685 C 39.600 297.034,41.199 298.138,41.400 297.928 C 41.467 297.857,41.089 297.477,40.561 297.081 C 40.032 296.686,39.600 296.508,39.600 296.685 M196.000 296.800 C 194.616 297.091,194.614 297.095,195.800 297.141 C 196.460 297.167,197.270 297.013,197.600 296.800 C 198.266 296.370,198.045 296.370,196.000 296.800 M192.000 297.600 C 190.633 297.888,190.628 297.895,191.800 297.919 C 192.460 297.933,193.360 297.789,193.800 297.600 C 194.762 297.187,193.964 297.187,192.000 297.600 M185.000 298.820 C 184.211 299.035,184.622 299.070,186.200 298.923 C 187.520 298.800,188.675 298.632,188.767 298.550 C 189.064 298.282,186.234 298.485,185.000 298.820 M45.000 299.600 C 45.440 299.789,46.070 299.944,46.400 299.944 C 46.778 299.944,46.704 299.817,46.200 299.600 C 45.760 299.411,45.130 299.256,44.800 299.256 C 44.422 299.256,44.496 299.383,45.000 299.600 M177.600 299.622 C 176.482 299.809,177.164 299.844,179.400 299.714 C 181.380 299.598,183.075 299.435,183.167 299.352 C 183.437 299.106,179.554 299.294,177.600 299.622 M79.332 300.300 C 96.894 300.358,125.514 300.358,142.932 300.300 C 160.349 300.242,145.980 300.195,111.000 300.195 C 76.020 300.195,61.769 300.242,79.332 300.300 " stroke="none" fill="#366f62" fill-rule="evenodd"></path><path id="path3" d="M246.144 59.909 C 246.460 60.421,248.800 62.153,248.800 61.875 C 248.800 61.776,248.139 61.191,247.332 60.575 C 246.524 59.959,245.989 59.659,246.144 59.909 M255.687 67.805 C 256.504 68.660,257.238 69.279,257.317 69.180 C 257.397 69.081,256.728 68.381,255.831 67.625 L 254.200 66.250 255.687 67.805 M260.800 72.600 C 261.546 73.370,262.247 74.000,262.357 74.000 C 262.467 74.000,261.946 73.370,261.200 72.600 C 260.454 71.830,259.753 71.200,259.643 71.200 C 259.533 71.200,260.054 71.830,260.800 72.600 M265.600 77.800 C 266.346 78.570,267.047 79.200,267.157 79.200 C 267.267 79.200,266.746 78.570,266.000 77.800 C 265.254 77.030,264.553 76.400,264.443 76.400 C 264.333 76.400,264.854 77.030,265.600 77.800 M269.200 82.000 C 270.121 83.100,270.964 84.000,271.074 84.000 C 271.184 84.000,270.521 83.100,269.600 82.000 C 268.679 80.900,267.836 80.000,267.726 80.000 C 267.616 80.000,268.279 80.900,269.200 82.000 M143.500 83.100 C 160.055 83.158,187.145 83.158,203.700 83.100 C 220.255 83.042,206.710 82.995,173.600 82.995 C 140.490 82.995,126.945 83.042,143.500 83.100 M272.391 85.988 C 272.857 86.641,273.442 87.302,273.691 87.456 C 273.941 87.611,273.641 87.076,273.025 86.268 C 271.688 84.515,271.184 84.292,272.391 85.988 M278.000 93.720 C 278.000 94.104,280.045 97.200,280.299 97.200 C 280.478 97.200,279.841 96.119,278.539 94.211 C 278.242 93.777,278.000 93.556,278.000 93.720 M281.800 100.000 C 282.141 100.660,282.511 101.200,282.621 101.200 C 282.731 101.200,282.541 100.660,282.200 100.000 C 281.859 99.340,281.489 98.800,281.379 98.800 C 281.269 98.800,281.459 99.340,281.800 100.000 M284.800 105.600 C 285.466 106.920,286.102 108.000,286.212 108.000 C 286.322 108.000,285.866 106.920,285.200 105.600 C 284.534 104.280,283.898 103.200,283.788 103.200 C 283.678 103.200,284.134 104.280,284.800 105.600 M286.428 108.600 C 286.428 108.820,286.686 109.450,287.000 110.000 C 287.314 110.550,287.572 110.820,287.572 110.600 C 287.572 110.380,287.314 109.750,287.000 109.200 C 286.686 108.650,286.428 108.380,286.428 108.600 M245.755 111.081 C 244.907 112.116,244.422 112.834,244.677 112.676 C 245.221 112.340,247.755 109.200,247.482 109.200 C 247.380 109.200,246.603 110.047,245.755 111.081 M289.646 115.800 C 289.653 116.020,290.006 116.920,290.429 117.800 C 290.852 118.680,291.086 118.950,290.949 118.400 C 290.667 117.267,289.625 115.188,289.646 115.800 M234.500 116.676 C 234.885 116.776,235.515 116.776,235.900 116.676 C 236.285 116.575,235.970 116.493,235.200 116.493 C 234.430 116.493,234.115 116.575,234.500 116.676 M132.700 117.100 C 151.235 117.157,181.565 117.157,200.100 117.100 C 218.635 117.042,203.470 116.995,166.400 116.995 C 129.330 116.995,114.165 117.042,132.700 117.100 M295.234 132.600 C 295.222 133.040,295.387 133.670,295.600 134.000 C 296.114 134.795,296.114 133.796,295.600 132.600 L 295.256 131.800 295.234 132.600 M296.034 135.800 C 296.022 136.240,296.187 136.870,296.400 137.200 C 296.914 137.995,296.914 136.996,296.400 135.800 L 296.056 135.000 296.034 135.800 M296.856 139.400 C 296.856 139.840,297.011 140.560,297.200 141.000 L 297.544 141.800 297.544 141.000 C 297.544 140.560,297.389 139.840,297.200 139.400 L 296.856 138.600 296.856 139.400 M297.668 143.600 C 297.662 144.150,297.811 144.960,298.000 145.400 L 298.344 146.200 298.332 145.400 C 298.326 144.960,298.176 144.150,298.000 143.600 L 297.680 142.600 297.668 143.600 M298.470 148.400 C 298.457 148.950,298.595 150.120,298.777 151.000 L 299.108 152.600 299.107 151.200 C 299.105 149.435,298.509 146.812,298.470 148.400 M181.500 149.900 C 190.355 149.960,204.845 149.960,213.700 149.900 C 222.555 149.840,215.310 149.791,197.600 149.791 C 179.890 149.791,172.645 149.840,181.500 149.900 M231.505 149.883 C 232.002 149.979,232.722 149.975,233.105 149.875 C 233.487 149.775,233.080 149.696,232.200 149.701 C 231.320 149.705,231.007 149.787,231.505 149.883 M237.000 150.400 C 237.440 150.589,238.070 150.744,238.400 150.744 C 238.778 150.744,238.704 150.617,238.200 150.400 C 237.760 150.211,237.130 150.056,236.800 150.056 C 236.422 150.056,236.496 150.183,237.000 150.400 M239.233 150.949 C 239.645 151.317,242.000 152.400,242.000 152.221 C 242.000 151.990,239.782 150.800,239.353 150.800 C 239.196 150.800,239.142 150.867,239.233 150.949 M154.581 154.900 L 153.000 156.600 154.700 155.019 C 156.281 153.548,156.584 153.200,156.281 153.200 C 156.216 153.200,155.451 153.965,154.581 154.900 M245.000 154.800 C 245.859 155.680,246.652 156.400,246.762 156.400 C 246.872 156.400,246.259 155.680,245.400 154.800 C 244.541 153.920,243.748 153.200,243.638 153.200 C 243.528 153.200,244.141 153.920,245.000 154.800 M299.400 166.800 C 299.400 173.950,299.517 178.810,299.660 177.600 C 299.804 176.390,299.921 171.530,299.921 166.800 C 299.921 162.070,299.804 157.210,299.660 156.000 C 299.517 154.790,299.400 159.650,299.400 166.800 M247.764 158.342 C 247.881 158.531,248.166 159.186,248.399 159.798 C 248.632 160.410,248.921 160.813,249.041 160.693 C 249.278 160.456,248.115 158.000,247.766 158.000 C 247.649 158.000,247.648 158.154,247.764 158.342 M249.256 161.800 C 249.256 162.240,249.411 162.960,249.600 163.400 L 249.944 164.200 249.944 163.400 C 249.944 162.960,249.789 162.240,249.600 161.800 L 249.256 161.000 249.256 161.800 M249.450 170.450 C 249.117 172.117,249.440 172.440,249.800 170.800 C 249.952 170.109,249.993 169.459,249.891 169.358 C 249.789 169.256,249.591 169.747,249.450 170.450 M247.831 174.644 C 247.184 175.879,245.611 177.825,244.240 179.087 C 242.898 180.323,242.351 180.956,243.025 180.493 C 245.466 178.818,249.768 173.235,249.118 172.585 C 249.043 172.509,248.463 173.436,247.831 174.644 M298.585 183.385 C 298.430 184.623,298.400 185.734,298.519 185.852 C 298.637 185.970,298.861 185.054,299.015 183.815 C 299.170 182.577,299.200 181.466,299.081 181.348 C 298.963 181.230,298.739 182.146,298.585 183.385 M163.000 183.190 C 163.764 183.528,166.314 183.757,165.967 183.456 C 165.875 183.376,164.990 183.204,164.000 183.073 C 162.798 182.914,162.466 182.953,163.000 183.190 M217.400 183.200 L 198.600 183.412 217.200 183.466 C 227.430 183.496,236.250 183.376,236.800 183.200 C 237.518 182.970,237.574 182.895,237.000 182.934 C 236.560 182.964,227.740 183.083,217.400 183.200 M297.800 188.800 C 297.646 189.710,297.611 190.544,297.721 190.654 C 297.831 190.764,298.046 190.110,298.200 189.200 C 298.354 188.290,298.389 187.456,298.279 187.346 C 298.169 187.236,297.954 187.890,297.800 188.800 M297.000 193.200 C 296.848 193.891,296.814 194.547,296.924 194.657 C 297.034 194.767,297.248 194.291,297.400 193.600 C 297.552 192.909,297.586 192.253,297.476 192.143 C 297.366 192.033,297.152 192.509,297.000 193.200 M296.200 196.800 C 296.048 197.491,296.014 198.147,296.124 198.257 C 296.234 198.367,296.448 197.891,296.600 197.200 C 296.752 196.509,296.786 195.853,296.676 195.743 C 296.566 195.633,296.352 196.109,296.200 196.800 M295.473 199.753 C 295.323 200.145,295.211 200.766,295.225 201.133 C 295.242 201.575,295.381 201.474,295.637 200.834 C 295.849 200.303,295.961 199.682,295.885 199.454 C 295.809 199.227,295.624 199.361,295.473 199.753 M294.673 202.553 C 294.523 202.945,294.411 203.566,294.425 203.933 C 294.442 204.375,294.581 204.274,294.837 203.634 C 295.049 203.103,295.161 202.482,295.085 202.254 C 295.009 202.027,294.824 202.161,294.673 202.553 M293.849 205.415 C 293.712 205.773,293.615 206.366,293.634 206.733 C 293.653 207.100,293.827 206.869,294.021 206.220 C 294.398 204.958,294.265 204.333,293.849 205.415 M293.067 207.867 C 292.920 208.013,292.811 208.508,292.825 208.967 C 292.849 209.733,292.882 209.723,293.234 208.842 C 293.626 207.863,293.544 207.389,293.067 207.867 M292.177 210.643 C 292.044 211.059,291.770 211.813,291.567 212.319 C 291.365 212.824,291.210 213.454,291.222 213.719 C 291.234 213.983,291.600 213.321,292.036 212.247 C 292.472 211.173,292.736 210.203,292.623 210.090 C 292.511 209.978,292.310 210.226,292.177 210.643 M289.632 217.300 C 288.350 220.620,287.840 221.849,287.599 222.200 C 287.199 222.783,286.796 224.000,287.003 224.000 C 287.100 224.000,287.535 223.220,287.969 222.268 C 289.251 219.454,290.404 216.400,290.184 216.400 C 290.072 216.400,289.824 216.805,289.632 217.300 M283.020 231.160 C 282.452 232.282,282.064 233.200,282.159 233.200 C 282.451 233.200,284.423 229.490,284.233 229.299 C 284.134 229.201,283.589 230.038,283.020 231.160 M281.014 234.635 C 280.641 235.204,280.427 235.761,280.539 235.872 C 280.650 235.983,281.029 235.518,281.381 234.837 C 282.159 233.333,281.944 233.215,281.014 234.635 M277.538 240.300 C 276.268 242.356,270.708 249.697,268.298 252.500 C 266.158 254.989,265.998 255.727,268.112 253.355 C 269.802 251.460,277.196 241.622,278.123 240.037 C 279.152 238.274,278.650 238.501,277.538 240.300 M260.702 260.672 C 257.678 263.678,255.248 266.180,255.302 266.232 C 255.425 266.350,261.000 260.981,264.187 257.676 C 268.455 253.251,266.340 255.069,260.702 260.672 M252.800 268.062 C 250.645 269.955,242.886 275.844,240.500 277.399 C 239.565 278.008,238.800 278.593,238.800 278.699 C 238.800 278.964,240.388 277.934,244.400 275.070 C 249.449 271.466,255.038 266.897,254.742 266.616 C 254.664 266.542,253.790 267.192,252.800 268.062 M235.300 280.626 C 233.412 281.758,232.977 282.349,234.700 281.441 C 235.909 280.803,237.516 279.631,237.200 279.617 C 237.090 279.612,236.235 280.066,235.300 280.626 M231.061 283.046 C 229.994 283.601,229.202 284.135,229.300 284.233 C 229.487 284.421,233.200 282.452,233.200 282.166 C 233.200 281.932,233.210 281.928,231.061 283.046 M220.288 288.363 C 216.340 290.080,215.046 290.922,218.368 289.613 C 221.462 288.393,224.000 287.211,224.000 286.990 C 224.000 286.734,224.231 286.648,220.288 288.363 M210.200 292.400 C 209.908 292.873,210.299 292.873,211.400 292.400 C 212.171 292.069,212.169 292.055,211.324 292.028 C 210.842 292.013,210.336 292.180,210.200 292.400 M207.800 293.200 C 207.508 293.673,207.899 293.673,209.000 293.200 C 209.771 292.869,209.769 292.855,208.924 292.828 C 208.442 292.813,207.936 292.980,207.800 293.200 M205.200 294.000 C 204.405 294.514,205.404 294.514,206.600 294.000 L 207.400 293.656 206.600 293.634 C 206.160 293.622,205.530 293.787,205.200 294.000 M202.400 294.800 C 201.605 295.314,202.604 295.314,203.800 294.800 L 204.600 294.456 203.800 294.434 C 203.360 294.422,202.730 294.587,202.400 294.800 M199.600 295.600 C 198.805 296.114,199.804 296.114,201.000 295.600 L 201.800 295.256 201.000 295.234 C 200.560 295.222,199.930 295.387,199.600 295.600 M196.200 296.400 L 195.400 296.744 196.200 296.744 C 196.640 296.744,197.360 296.589,197.800 296.400 L 198.600 296.056 197.800 296.056 C 197.360 296.056,196.640 296.211,196.200 296.400 M192.600 297.200 C 191.581 297.638,192.632 297.638,194.000 297.200 C 194.804 296.943,194.843 296.877,194.200 296.868 C 193.760 296.862,193.040 297.011,192.600 297.200 M188.000 298.000 L 187.000 298.320 188.000 298.320 C 188.550 298.320,189.450 298.176,190.000 298.000 L 191.000 297.680 190.000 297.680 C 189.450 297.680,188.550 297.824,188.000 298.000 M182.200 298.800 L 181.000 299.105 182.400 299.105 C 183.170 299.105,184.340 298.968,185.000 298.800 L 186.200 298.495 184.800 298.495 C 184.030 298.495,182.860 298.632,182.200 298.800 M171.400 299.600 L 167.800 299.849 171.600 299.889 C 173.690 299.912,176.300 299.790,177.400 299.618 L 179.400 299.307 177.200 299.329 C 175.990 299.341,173.380 299.463,171.400 299.600 M55.500 299.900 C 59.955 299.964,67.245 299.964,71.700 299.900 C 76.155 299.835,72.510 299.782,63.600 299.782 C 54.690 299.782,51.045 299.835,55.500 299.900 M82.512 299.895 C 83.564 299.977,85.184 299.976,86.112 299.892 C 87.040 299.808,86.180 299.741,84.200 299.742 C 82.220 299.743,81.460 299.812,82.512 299.895 " stroke="none" fill="#448c94" fill-rule="evenodd"></path><path id="path4" d="M164.713 33.495 C 165.876 33.576,167.676 33.576,168.713 33.493 C 169.751 33.411,168.800 33.345,166.600 33.346 C 164.400 33.347,163.551 33.414,164.713 33.495 M152.800 34.000 L 151.400 34.295 153.000 34.308 C 153.880 34.315,155.590 34.184,156.800 34.017 L 159.000 33.713 156.600 33.709 C 155.280 33.707,153.570 33.838,152.800 34.000 M175.233 33.751 C 175.325 33.835,176.840 34.004,178.600 34.127 C 180.950 34.292,181.375 34.258,180.200 33.999 C 178.606 33.647,174.916 33.464,175.233 33.751 M146.600 34.800 L 145.400 35.105 146.600 35.105 C 147.260 35.105,148.340 34.968,149.000 34.800 L 150.200 34.495 149.000 34.495 C 148.340 34.495,147.260 34.632,146.600 34.800 M184.600 34.800 C 185.260 34.968,186.250 35.105,186.800 35.105 C 187.692 35.105,187.670 35.072,186.600 34.800 C 185.940 34.632,184.950 34.495,184.400 34.495 C 183.508 34.495,183.530 34.528,184.600 34.800 M142.000 35.600 L 141.000 35.920 142.000 35.920 C 142.550 35.920,143.450 35.776,144.000 35.600 L 145.000 35.280 144.000 35.280 C 143.450 35.280,142.550 35.424,142.000 35.600 M189.800 35.600 C 190.240 35.789,190.960 35.938,191.400 35.932 C 192.043 35.923,192.004 35.857,191.200 35.600 C 189.832 35.162,188.781 35.162,189.800 35.600 M138.000 36.400 L 137.000 36.720 138.000 36.732 C 138.550 36.738,139.360 36.589,139.800 36.400 L 140.600 36.056 139.800 36.068 C 139.360 36.074,138.550 36.224,138.000 36.400 M194.000 36.382 C 194.330 36.605,194.945 36.791,195.367 36.794 C 196.390 36.802,196.071 36.573,194.600 36.244 C 193.724 36.048,193.562 36.085,194.000 36.382 M134.600 37.200 L 133.800 37.544 134.600 37.544 C 135.040 37.544,135.760 37.389,136.200 37.200 L 137.000 36.856 136.200 36.856 C 135.760 36.856,135.040 37.011,134.600 37.200 M131.400 38.000 L 130.600 38.344 131.400 38.366 C 131.840 38.378,132.470 38.213,132.800 38.000 C 133.595 37.486,132.596 37.486,131.400 38.000 M128.600 38.800 L 127.800 39.144 128.600 39.166 C 129.040 39.178,129.670 39.013,130.000 38.800 C 130.795 38.286,129.796 38.286,128.600 38.800 M126.200 39.600 C 125.429 39.931,125.431 39.945,126.276 39.972 C 126.758 39.987,127.264 39.820,127.400 39.600 C 127.692 39.127,127.301 39.127,126.200 39.600 M123.800 40.400 C 123.029 40.731,123.031 40.745,123.876 40.772 C 124.358 40.787,124.864 40.620,125.000 40.400 C 125.292 39.927,124.901 39.927,123.800 40.400 M121.400 41.200 C 120.629 41.531,120.631 41.545,121.476 41.572 C 121.958 41.587,122.464 41.420,122.600 41.200 C 122.892 40.727,122.501 40.727,121.400 41.200 M114.400 43.901 C 113.630 44.258,111.020 45.510,108.600 46.682 C 104.724 48.559,103.356 49.272,99.266 51.546 C 98.752 51.831,98.420 52.153,98.528 52.261 C 98.636 52.369,99.506 51.964,100.462 51.360 C 102.643 49.982,114.834 44.009,115.476 44.004 C 115.738 44.002,116.064 43.820,116.200 43.600 C 116.538 43.053,116.052 43.134,114.400 43.901 M94.853 54.248 C 93.264 55.265,92.045 56.178,92.144 56.277 C 92.318 56.451,98.000 52.827,98.000 52.541 C 98.000 52.263,97.704 52.424,94.853 54.248 M90.000 57.520 C 86.419 60.170,82.090 63.483,81.018 64.395 C 76.618 68.135,70.343 74.077,70.562 74.295 C 70.648 74.381,72.042 73.160,73.659 71.582 C 78.391 66.964,88.329 58.799,91.115 57.239 C 91.488 57.031,91.705 56.775,91.597 56.672 C 91.489 56.568,90.770 56.950,90.000 57.520 M69.226 75.515 C 68.910 75.892,67.920 77.013,67.026 78.006 C 60.990 84.711,55.496 92.378,50.689 100.800 C 49.271 103.286,45.384 110.958,44.813 112.400 C 44.508 113.170,43.827 114.762,43.300 115.938 C 42.773 117.113,42.441 118.174,42.562 118.295 C 42.682 118.416,42.897 118.174,43.039 117.757 C 46.805 106.716,57.420 89.420,67.070 78.602 C 68.935 76.511,70.313 74.807,70.131 74.815 C 69.949 74.824,69.542 75.139,69.226 75.515 M98.000 83.247 C 97.230 83.383,127.740 83.486,165.800 83.475 C 203.860 83.465,234.190 83.403,233.200 83.337 C 229.527 83.096,99.348 83.009,98.000 83.247 M93.000 84.558 C 88.506 86.693,83.543 92.546,83.636 95.600 C 83.646 95.930,83.844 95.750,84.076 95.200 C 86.570 89.285,89.285 86.570,95.200 84.076 C 95.750 83.844,95.930 83.644,95.600 83.631 C 95.270 83.618,94.100 84.035,93.000 84.558 M244.800 88.200 C 245.546 88.970,246.247 89.600,246.357 89.600 C 246.467 89.600,245.946 88.970,245.200 88.200 C 244.454 87.430,243.753 86.800,243.643 86.800 C 243.533 86.800,244.054 87.430,244.800 88.200 M83.088 98.500 C 82.967 99.435,83.012 100.920,83.188 101.800 C 83.459 103.153,83.515 102.891,83.554 100.100 C 83.605 96.475,83.429 95.872,83.088 98.500 M83.612 104.400 C 83.612 104.730,83.787 105.270,84.000 105.600 C 84.345 106.133,84.388 106.133,84.388 105.600 C 84.388 105.270,84.213 104.730,84.000 104.400 C 83.655 103.867,83.612 103.867,83.612 104.400 M84.400 106.744 C 84.400 108.609,92.499 116.434,93.448 115.486 C 93.567 115.366,92.975 114.945,92.132 114.551 C 90.173 113.633,86.376 109.845,85.465 107.900 C 84.785 106.449,84.400 106.031,84.400 106.744 M131.300 116.700 C 150.165 116.757,181.035 116.757,199.900 116.700 C 218.765 116.642,203.330 116.595,165.600 116.595 C 127.870 116.595,112.435 116.642,131.300 116.700 M41.246 121.067 C 41.221 121.324,41.084 121.864,40.941 122.267 C 40.740 122.836,40.794 122.897,41.179 122.542 C 41.452 122.291,41.589 121.751,41.484 121.342 C 41.379 120.934,41.272 120.810,41.246 121.067 M39.646 125.867 C 39.621 126.124,39.484 126.664,39.341 127.067 C 39.140 127.636,39.194 127.697,39.579 127.342 C 39.852 127.091,39.989 126.551,39.884 126.142 C 39.779 125.734,39.672 125.610,39.646 125.867 M38.629 129.029 C 38.481 129.615,38.451 130.184,38.561 130.294 C 38.671 130.404,38.881 130.015,39.029 129.429 C 39.176 128.842,39.206 128.273,39.096 128.163 C 38.986 128.053,38.776 128.442,38.629 129.029 M37.829 131.829 C 37.681 132.415,37.651 132.984,37.761 133.094 C 37.871 133.204,38.081 132.815,38.229 132.229 C 38.376 131.642,38.406 131.073,38.296 130.963 C 38.186 130.853,37.976 131.242,37.829 131.829 M37.029 135.029 C 36.881 135.615,36.851 136.184,36.961 136.294 C 37.071 136.404,37.281 136.015,37.429 135.429 C 37.576 134.842,37.606 134.273,37.496 134.163 C 37.386 134.053,37.176 134.442,37.029 135.029 M36.222 138.622 C 36.072 139.425,36.038 140.172,36.148 140.282 C 36.258 140.392,36.472 139.825,36.622 139.022 C 36.773 138.219,36.806 137.473,36.696 137.363 C 36.586 137.253,36.373 137.819,36.222 138.622 M35.400 142.800 C 35.246 143.710,35.211 144.544,35.321 144.654 C 35.431 144.764,35.646 144.110,35.800 143.200 C 35.954 142.290,35.989 141.456,35.879 141.346 C 35.769 141.236,35.554 141.890,35.400 142.800 M34.585 147.785 C 34.430 149.023,34.400 150.134,34.519 150.252 C 34.637 150.370,34.861 149.454,35.015 148.215 C 35.170 146.977,35.200 145.866,35.081 145.748 C 34.963 145.630,34.739 146.546,34.585 147.785 M33.796 154.509 C 33.643 156.141,33.592 157.819,33.684 158.238 C 33.776 158.657,33.991 157.412,34.163 155.472 C 34.336 153.531,34.386 151.853,34.275 151.742 C 34.164 151.631,33.949 152.876,33.796 154.509 M33.395 224.200 C 33.395 257.640,33.442 271.261,33.500 254.469 C 33.558 237.676,33.558 210.316,33.500 193.669 C 33.442 177.021,33.395 190.760,33.395 224.200 M174.100 183.500 C 178.665 183.564,186.135 183.564,190.700 183.500 C 195.265 183.435,191.530 183.383,182.400 183.383 C 173.270 183.383,169.535 183.435,174.100 183.500 M38.000 295.000 C 38.746 295.770,39.447 296.400,39.557 296.400 C 39.667 296.400,39.146 295.770,38.400 295.000 C 37.654 294.230,36.953 293.600,36.843 293.600 C 36.733 293.600,37.254 294.230,38.000 295.000 " stroke="none" fill="#44966e" fill-rule="evenodd"></path></g></svg>